<svg width="75" height="45" viewBox="0 0 75 45" fill="none" xmlns="http://www.w3.org/2000/svg">
<path d="M17.6853 11.7366H31.8218V12.8548H18.9811V21.2707H31.0561V22.3889H18.9811V31.6286H31.969V32.7468H17.6853V11.7366ZM33.0882 11.7366H34.5902L41.2461 20.9764L48.0493 11.7366L57.3027 0L42.1002 21.9475L49.9341 32.7468H48.3732L41.2461 22.9185L34.0895 32.7468H32.5581L40.4509 21.9475L33.0882 11.7366ZM50.4937 12.8548V11.7366H66.6034V12.8548H59.1818V32.7468H57.8859V12.8548H50.4937Z" fill="#F0A400"/>
<path d="M0 11.7366H1.6198L23.956 44.9999L14.7255 32.7467L1.35475 13.3256L1.29584 32.7467H0V11.7366Z" fill="#F0A400"/>
<path d="M66.4728 31.2911C66.7407 31.2911 66.9361 31.087 66.9361 30.8231C66.9361 30.5593 66.7407 30.3552 66.4728 30.3552C66.2081 30.3552 66.0095 30.5593 66.0095 30.8231C66.0095 31.087 66.2081 31.2911 66.4728 31.2911ZM67.7462 30.0599C67.7462 30.8388 68.3103 31.3476 69.1329 31.3476C70.0091 31.3476 70.5386 30.8231 70.5386 29.9123V26.7056H69.8326V29.9092C69.8326 30.4148 69.5773 30.6849 69.1266 30.6849C68.7232 30.6849 68.449 30.4337 68.4396 30.0599H67.7462ZM71.4621 30.0191C71.5125 30.8294 72.1902 31.3476 73.1988 31.3476C74.2767 31.3476 74.9511 30.8043 74.9511 29.9374C74.9511 29.2559 74.5666 28.879 73.6337 28.6623L73.1326 28.5398C72.54 28.4016 72.3005 28.2163 72.3005 27.8928C72.3005 27.4845 72.6724 27.2176 73.2303 27.2176C73.7598 27.2176 74.1254 27.4782 74.1916 27.896H74.8787C74.8377 27.1328 74.1632 26.5957 73.2397 26.5957C72.2469 26.5957 71.585 27.1328 71.585 27.9399C71.585 28.6058 71.9601 29.0015 72.7827 29.1931L73.3689 29.3344C73.9709 29.4758 74.2357 29.683 74.2357 30.0285C74.2357 30.4305 73.8197 30.7226 73.2523 30.7226C72.644 30.7226 72.2217 30.4494 72.1618 30.0191H71.4621Z" fill="#F0A400"/>
</svg>
