<svg width="56" height="56" viewBox="0 0 56 56" fill="none" xmlns="http://www.w3.org/2000/svg">
<g clip-path="url(#clip0_659_318)">
<path d="M19.7949 22.2974C22.0279 22.2974 23.8423 23.4915 24.7727 25.5652L24.8425 25.7283L28.5874 24.4526L28.5118 24.2604C27.0639 20.7189 23.7201 18.5229 19.7949 18.5229C17.0327 18.5229 14.788 19.4083 12.933 21.2315C11.0896 23.043 10.1592 25.3205 10.1592 28C10.1592 30.6619 11.0954 32.9278 12.933 34.7335C14.788 36.5566 17.0327 37.442 19.7949 37.442C23.7201 37.442 27.058 35.2402 28.5118 31.7046L28.5874 31.5123L24.8366 30.2367L24.7727 30.4056C23.9353 32.4501 22.0744 33.6675 19.7949 33.6675C18.2423 33.6675 16.928 33.1258 15.8929 32.054C14.8404 30.9706 14.3112 29.6018 14.3112 28C14.3112 26.3865 14.8288 25.0468 15.8929 23.9109C16.9338 22.8392 18.2423 22.2974 19.7949 22.2974Z" fill="white"/>
<path d="M36.054 54.4272L34.9375 50.7401C45.0094 47.6763 51.7782 38.5371 51.7782 27.9999C51.7782 25.0934 51.2607 22.2508 50.2372 19.5598L53.831 18.1909C55.0231 21.3247 55.6278 24.6215 55.6278 28.0058C55.622 40.2438 47.7599 50.8624 36.054 54.4272Z" fill="url(#paint0_linear_659_318)"/>
<path d="M50.7373 21.0335C47.6611 10.9798 38.5255 4.22885 28.0001 4.22885C26.5695 4.22885 25.139 4.35699 23.7434 4.60746L23.063 0.81549C24.6796 0.524249 26.3427 0.372803 28.0001 0.372803C40.2235 0.372803 50.8362 8.21886 54.4125 19.8977L50.7373 21.0335Z" fill="white"/>
<path d="M43.2475 18.8726L37.915 32.4095L32.5418 18.8726H28.1455L35.682 37.3489L30.1924 50.6878L34.0363 51.4567L47.3995 18.8726H43.2475Z" fill="white"/>
<path d="M30.8843 49.0103L30.076 50.9732C29.8899 51.4217 29.4654 51.7305 28.9885 51.7479C28.6571 51.7596 28.3314 51.7712 27.9941 51.7712C18.0618 51.7712 9.15301 45.5037 5.71625 36.3179C5.66391 36.1781 5.61157 36.0383 5.56505 35.8986C5.55342 35.8636 5.54179 35.8228 5.52435 35.7879C5.48364 35.6597 5.43712 35.5374 5.39641 35.4093C5.37897 35.3627 5.36734 35.3161 5.34989 35.2636C5.315 35.1472 5.27429 35.0365 5.2394 34.92C5.22196 34.8617 5.20451 34.8035 5.18707 34.7452C4.54158 32.5667 4.21594 30.3009 4.21594 27.9942C4.21594 15.7155 13.4213 5.54532 25.6215 4.33958L25.2436 0.506836C11.072 1.91062 0.37793 13.7292 0.37793 28.0001C0.37793 30.598 0.73847 33.1551 1.4421 35.6248V35.6306C1.48863 35.7995 1.54096 35.9626 1.5933 36.1315C1.59911 36.1548 1.60493 36.1781 1.61656 36.2014C1.66308 36.3587 1.71542 36.516 1.76775 36.6733C1.77938 36.7024 1.7852 36.7257 1.79683 36.7548C1.84917 36.9121 1.9015 37.0693 1.95965 37.2266C1.96547 37.2499 1.9771 37.2674 1.98291 37.2907C2.03525 37.4421 2.0934 37.5936 2.14574 37.7392C6.1582 48.3695 16.4801 55.6156 27.9883 55.6215H27.9941C28.3779 55.6215 28.7617 55.6156 29.1455 55.5982C31.1169 55.5166 32.8789 54.2759 33.6348 52.4411L34.7281 49.7791L30.8843 49.0103Z" fill="white"/>
</g>
<defs>
<linearGradient id="paint0_linear_659_318" x1="57.7441" y1="28.1748" x2="33.0565" y2="44.1325" gradientUnits="userSpaceOnUse">
<stop offset="0.0814251" stop-color="white"/>
<stop offset="1" stop-color="white" stop-opacity="0"/>
</linearGradient>
<clipPath id="clip0_659_318">
<rect width="56" height="56" fill="white"/>
</clipPath>
</defs>
</svg>
