<svg width="38" height="51" viewBox="0 0 38 51" fill="none" xmlns="http://www.w3.org/2000/svg">
<g clip-path="url(#clip0_679_809)">
<path d="M12.437 39.1664C12.437 39.1664 10.5266 40.277 13.7972 40.6534C17.7592 41.1054 19.7841 41.04 24.149 40.2157C24.149 40.2157 25.2985 40.9357 26.9021 41.5575C17.1149 45.7526 4.74831 41.3161 12.437 39.1664ZM11.2404 33.6929C11.2404 33.6929 9.0989 35.2781 12.3716 35.6176C16.6055 36.0553 19.9457 36.0901 25.7322 34.9774C25.7322 34.9774 26.5299 35.7874 27.7878 36.2312C15.9531 39.6921 2.77449 36.5033 11.2404 33.6929Z" fill="white"/>
<path d="M21.3243 24.4068C23.7379 27.1844 20.6923 29.6819 20.6923 29.6819C20.6923 29.6819 26.8163 26.5217 24.0038 22.5618C21.3775 18.8699 19.3628 17.0372 30.2669 10.7128C30.2669 10.7128 13.1488 14.9877 21.3243 24.4068Z" fill="white"/>
<path d="M34.2699 43.2163C34.2699 43.2163 35.6833 44.3822 32.7134 45.2822C27.064 46.9921 9.19734 47.5096 4.23518 45.3497C2.45158 44.5724 5.79787 43.4965 6.84921 43.2695C7.94555 43.0322 8.57349 43.0752 8.57349 43.0752C6.58944 41.6781 -4.24918 45.8181 3.06929 47.0064C23.0243 50.2443 39.4469 45.5521 34.2699 43.2163ZM13.3557 28.021C13.3557 28.021 4.2679 30.1809 10.1382 30.9643C12.6173 31.2957 17.5549 31.22 22.1591 30.8334C25.9206 30.5184 29.6944 29.8434 29.6944 29.8434C29.6944 29.8434 28.3689 30.412 27.4096 31.0666C18.1808 33.4945 0.352992 32.3634 5.48697 29.8823C9.82732 27.7837 13.3557 28.021 13.3557 28.021ZM29.6576 37.1333C39.0398 32.259 34.7015 27.5751 31.6723 28.2071C30.9318 28.3625 30.6005 28.4955 30.6005 28.4955C30.6005 28.4955 30.8766 28.0639 31.4023 27.8778C37.3912 25.7731 41.9975 34.0876 29.4714 37.3807C29.4714 37.3787 29.6146 37.2498 29.6576 37.1333Z" fill="white"/>
<path d="M24.0035 0.5C24.0035 0.5 29.1988 5.69738 19.0761 13.6867C10.9579 20.0991 17.225 23.7522 19.074 27.931C14.3348 23.6561 10.8597 19.8925 13.1914 16.3887C16.6114 11.2486 26.098 8.75527 24.0035 0.5Z" fill="white"/>
<path d="M14.2778 50.3445C23.2817 50.9193 37.1107 50.0234 37.438 45.7628C37.438 45.7628 36.808 47.3787 29.9968 48.6591C22.3122 50.1052 12.8317 49.9375 7.21094 49.0089C7.21094 49.0089 8.3625 49.962 14.2778 50.3445Z" fill="white"/>
</g>
<defs>
<clipPath id="clip0_679_809">
<rect width="36.8767" height="50" fill="white" transform="translate(0.561523 0.5)"/>
</clipPath>
</defs>
</svg>
