<svg width="46" height="50" viewBox="0 0 46 50" fill="none" xmlns="http://www.w3.org/2000/svg">
<path d="M41.7207 33.6951C41.3785 35.6669 40.1607 37.389 38.3799 38.4206C36.7197 39.382 34.7304 39.669 32.624 39.9727C31.4957 40.1353 30.3289 40.3038 29.1891 40.5848C26.1753 41.3279 23.2561 42.778 20.4333 44.1802C14.7837 46.9864 9.90477 49.4095 5.30433 46.221C1.93443 43.8856 2.08998 39.5643 2.48256 37.1964C2.84644 35.0025 3.8302 32.982 4.78136 31.0282C4.94341 30.6961 5.10415 30.3634 5.26358 30.03C5.74305 30.2217 6.24616 30.3479 6.75933 30.4053C5.79098 33.601 7.31383 37.0758 10.5099 38.7177L10.9475 38.9425L11.4106 38.7776C13.9374 37.8776 16.2658 36.4338 18.3309 34.4852C19.6658 33.2258 20.8136 31.8324 21.757 30.3436C22.0438 30.3869 22.3334 30.4086 22.6235 30.4086C25.557 30.4086 27.9862 28.2156 28.3621 25.3832C29.5629 25.3393 30.8383 25.3389 32.046 25.3828C32.4215 28.2156 34.8511 30.4088 37.7846 30.4088C39.0113 30.4088 40.149 30.0244 41.0863 29.3714C41.737 30.7034 41.9799 32.2022 41.7207 33.6951ZM7.40524 21.1341C9.34477 21.1341 10.9225 22.712 10.9225 24.6515C10.9225 25.3481 10.7181 25.9978 10.3671 26.5448C9.78253 27.4566 8.78867 28.0817 7.64689 28.1596C7.56699 28.1649 7.48638 28.1688 7.40524 28.1688C6.97298 28.1688 6.55896 28.09 6.17612 27.9468C5.4051 27.6569 4.75944 27.107 4.35051 26.3919C4.04686 25.8622 3.88732 25.2621 3.88778 24.6515C3.88778 22.712 5.46572 21.1341 7.40524 21.1341ZM19.1063 24.618C19.1063 22.8559 20.409 21.3927 22.1016 21.1397C22.272 21.114 22.4463 21.1008 22.6236 21.1008C23.7512 21.1008 24.7552 21.6349 25.399 22.4626C25.5603 22.6689 25.698 22.8927 25.8096 23.1296C26.0283 23.5953 26.1414 24.1036 26.1409 24.618C26.1409 24.8992 26.1069 25.1726 26.0444 25.4347C25.7016 26.8697 24.4779 27.9667 22.9785 28.1176C22.8619 28.1293 22.7436 28.1353 22.6236 28.1353C21.9471 28.1359 21.2849 27.9401 20.7174 27.5718C19.7491 26.9445 19.1063 25.8551 19.1063 24.618ZM33.7865 20.4353C33.0211 21.1659 32.4703 22.0921 32.1937 23.1134C30.868 23.0646 29.5408 23.0646 28.2151 23.1134C27.9175 22.0094 27.3006 21.0354 26.4706 20.2956L30.1103 12.9361L33.7865 20.4353ZM18.1084 2.27365L42.1021 2.27365L36.435 18.9876C36.1912 19.046 35.9515 19.1203 35.7174 19.2099L30.1192 7.78981L24.5051 19.1417C24.2603 19.0577 24.0102 18.9903 23.7564 18.94L18.1084 2.27365ZM41.3019 24.6182C41.3019 24.9708 41.2493 25.3113 41.1524 25.6328C40.9225 26.3898 40.445 27.0477 39.7966 27.5009C39.2073 27.9145 38.5046 28.1362 37.7846 28.1355C36.1606 28.1355 34.7907 27.0288 34.3878 25.5301C34.3078 25.2327 34.2673 24.9261 34.2673 24.6182C34.2673 24.1374 34.3644 23.6789 34.5398 23.2612C34.6303 23.0475 34.7418 22.8432 34.8725 22.6514C35.5055 21.7171 36.5736 21.1009 37.7846 21.1009C37.8957 21.1009 38.0052 21.1066 38.1138 21.1169C39.8995 21.2832 41.3019 22.7896 41.3019 24.6182ZM43.5754 24.6182C43.5754 21.7911 41.5384 19.4323 38.8555 18.9284L45.2733 0L14.9376 0L21.3653 18.9667C18.7756 19.543 16.8331 21.8572 16.8331 24.618C16.8331 26.6911 17.9286 28.512 19.5705 29.5352C18.7807 30.7119 17.8443 31.8192 16.771 32.8318C15.0689 34.4374 13.1728 35.6552 11.1286 36.4565C9.06947 35.163 8.19909 32.7237 9.10295 30.5989L9.17381 30.4324L9.30668 30.1199C11.5683 29.331 13.1958 27.1785 13.1958 24.6515C13.1958 21.4584 10.5982 18.8608 7.40524 18.8608C4.21233 18.8608 1.61431 21.4584 1.61431 24.6515C1.61431 26.2631 2.27688 27.7226 3.34302 28.7735C3.14417 29.1948 2.94232 29.6146 2.73749 30.0331C1.76259 32.0351 0.657833 34.3043 0.239918 36.8244C-0.58989 41.8291 0.748715 45.8299 4.00931 48.0895C5.98781 49.4607 7.99713 50 10.019 50C13.8262 50 17.6776 48.0872 21.4445 46.2161C24.1573 44.8688 26.9626 43.4754 29.7335 42.792C30.7646 42.5377 31.8254 42.3847 32.9486 42.2228C35.176 41.9014 37.479 41.5692 39.5192 40.3878C41.8841 39.018 43.5028 36.7202 43.9605 34.0841C44.3535 31.8209 43.8806 29.5542 42.7273 27.6317C43.283 26.7248 43.5766 25.6817 43.5754 24.618V24.6182Z" fill="white"/>
</svg>
