<svg width="53" height="40" viewBox="0 0 53 40" fill="none" xmlns="http://www.w3.org/2000/svg">
<path d="M32.767 27.9928C34.383 30.8043 36.4854 32.8709 40.2037 32.8709C43.3273 32.8709 45.3227 31.2073 45.3227 28.9087C45.3227 26.1542 43.2726 25.1786 39.8344 23.5761L37.9498 22.7145C32.5098 20.2449 28.8959 17.1512 28.8959 10.6109C28.8959 4.58631 33.2038 0 39.9363 0C44.7293 0 48.1751 1.77754 50.6583 6.4317L44.7879 10.4481C43.4954 7.97856 42.101 7.00566 39.9363 7.00566C37.7282 7.00566 36.3287 8.49825 36.3287 10.4481C36.3287 12.858 37.7295 13.8336 40.9639 15.3262L42.8485 16.1864C49.2537 19.1133 52.8702 22.0971 52.8702 28.8056C52.8702 36.0379 47.5384 40 40.3781 40C33.377 40 28.8539 36.4449 26.6407 31.7853L32.767 27.9928ZM6.1365 28.6889C7.32076 30.9278 8.39805 32.8207 10.9881 32.8207C13.4649 32.8207 15.0274 31.7881 15.0274 27.773V0.458628H22.5659V27.8815C22.5659 36.1993 17.9893 39.9851 11.309 39.9851C5.27313 39.9851 1.77766 36.6566 0 32.6476L6.1365 28.6889Z" fill="#FFFFFF"/>
</svg>
