<svg width="99" height="23" viewBox="0 0 99 23" fill="none" xmlns="http://www.w3.org/2000/svg">
<g clip-path="url(#clip0_679_845)">
<path d="M44.2022 1.56702H40.1712L31.3882 10.922V1.59802H28.1582V21.871H31.3882V12.051L40.2022 21.871H44.3792L34.9822 11.387L44.2022 1.56702Z" fill="white"/>
<path d="M55.1914 7.68601C54.0384 7.02601 52.7414 6.69201 51.2904 6.69201C49.8124 6.69201 48.4874 7.02201 47.3174 7.68601C46.1653 8.33077 45.2175 9.28646 44.5824 10.444C43.9324 11.623 43.6064 12.959 43.6064 14.454C43.6064 15.948 43.9314 17.289 44.5784 18.464C45.2051 19.6214 46.1468 20.5777 47.2944 21.222C48.4604 21.881 49.7804 22.215 51.2584 22.215C52.7184 22.215 54.0244 21.885 55.1814 21.222C56.322 20.5753 57.2561 19.6187 57.8754 18.463C58.5174 17.285 58.8384 15.948 58.8384 14.453C58.8384 12.959 58.5184 11.623 57.8754 10.444C57.2583 9.29033 56.3279 8.33433 55.1914 7.68601ZM54.9874 17.014C54.6304 17.754 54.1284 18.328 53.4824 18.744C52.8364 19.159 52.0904 19.366 51.2494 19.366C50.3994 19.366 49.6454 19.159 48.9894 18.743C48.328 18.321 47.7985 17.7215 47.4614 17.013C47.1004 16.273 46.9194 15.424 46.9194 14.458C46.9194 13.492 47.1044 12.643 47.4704 11.903C47.8096 11.1931 48.3424 10.5934 49.0074 10.173C49.6634 9.75801 50.4224 9.55001 51.2854 9.55001C52.1174 9.55001 52.8584 9.75801 53.5054 10.173C54.1587 10.5966 54.6787 11.1963 55.0054 11.903C55.3584 12.643 55.5344 13.493 55.5344 14.458C55.5254 15.42 55.3444 16.273 54.9874 17.014ZM65.4434 3.33601H62.3114V5.85601C62.3114 6.25301 62.2164 6.55101 62.0214 6.74501C61.8274 6.94301 61.5294 7.04301 61.1224 7.04301H59.5854V9.70701H62.2524V17.685C62.2524 18.515 62.4194 19.247 62.7584 19.879C63.085 20.5 63.5863 21.0118 64.2004 21.351C64.8244 21.699 65.5604 21.871 66.4104 21.871H68.8014V19.089H67.0034C66.5374 19.089 66.1624 18.926 65.8734 18.606C65.5834 18.281 65.4394 17.856 65.4394 17.324V9.70701H68.8874V7.04301H65.4394V3.33601H65.4434ZM74.5684 0.786011H71.3825V21.87H74.5694L74.5684 0.786011ZM81.3864 0.812011H78.1684V4.08501H81.3864V0.812011ZM81.3545 7.04401H78.1684V21.87H81.3545V7.04401ZM97.5584 9.49001C97.1352 8.63762 96.4761 7.9247 95.6595 7.43601C94.8415 6.94401 93.8874 6.69601 92.7934 6.69601C91.6324 6.69601 90.6155 6.98001 89.7435 7.54401C89.0465 7.99101 88.4864 8.59601 88.0434 9.34101L88.0254 7.04301H84.9784V21.87H88.1694V13.572C88.1694 12.772 88.3234 12.059 88.6264 11.436C88.9068 10.8369 89.3562 10.3328 89.9194 9.98601C90.4754 9.64401 91.1214 9.47201 91.8674 9.47201C92.5364 9.47201 93.1054 9.61201 93.5844 9.89201C94.0644 10.172 94.4254 10.574 94.6694 11.093C94.9184 11.613 95.0394 12.235 95.0394 12.963V21.87H98.2314V12.515C98.2314 11.377 98.0064 10.366 97.5584 9.49001Z" fill="white"/>
<path d="M20.8887 21.5H0.888672V1.5H20.8887L10.6817 11.355L20.8887 21.5Z" fill="white"/>
</g>
<defs>
<clipPath id="clip0_679_845">
<rect width="98" height="22" fill="white" transform="translate(0.888672 0.5)"/>
</clipPath>
</defs>
</svg>
