<svg width="84" height="24" viewBox="0 0 84 24" fill="none" xmlns="http://www.w3.org/2000/svg">
<g clip-path="url(#clip0_578_1217)">
<path d="M65.0449 0.0100098L82.088 0.0100098V3.85819L75.3272 3.85819V24.1029H71.9465V3.85819L65.0449 3.85819V0.0100098Z" fill="white"/>
<path d="M37.0157 0.0100098V3.85819L23.3545 3.85819V10.0487H34.3408V13.8969H23.3545V20.2548H37.0157V24.1029H19.9741V3.85819H19.9727V0.0100098L37.0157 0.0100098Z" fill="white"/>
<path d="M45.526 0.0200195L41.1021 0.0200195L56.9477 24.113H61.3845L53.4607 12.0748L61.3719 0.0384009L56.9477 0.0467645L51.2458 8.70971L45.526 0.0200195Z" fill="white"/>
<path d="M50.0656 17.2298L47.8502 13.8601L41.0894 24.1314H45.526L50.0656 17.2298Z" fill="white"/>
<path fill-rule="evenodd" clip-rule="evenodd" d="M20.0925 24.103L4.22554 0L0 0L0 24.0929H3.38044L3.38044 5.14985L15.8458 24.103H20.0925Z" fill="white"/>
</g>
<defs>
<clipPath id="clip0_578_1217">
<rect width="83.0769" height="24" fill="white"/>
</clipPath>
</defs>
</svg>
