<svg width="51" height="51" viewBox="0 0 51 51" fill="none" xmlns="http://www.w3.org/2000/svg">
<g clip-path="url(#clip0_679_819)">
<path d="M25.2291 0.51416C12.517 0.51416 13.3107 6.02691 13.3107 6.02691L13.3248 11.7383H25.4558V13.453H8.50658C8.50658 13.453 0.37207 12.5304 0.37207 25.3569C0.37207 38.1838 7.47207 37.7289 7.47207 37.7289H11.7093V31.7767C11.7093 31.7767 11.4809 24.6767 18.696 24.6767H30.7278C30.7278 24.6767 37.4876 24.7859 37.4876 18.1436V7.16083C37.4876 7.16083 38.5142 0.51416 25.2291 0.51416ZM18.5401 4.35494C18.8268 4.35469 19.1107 4.41096 19.3756 4.52054C19.6405 4.63012 19.8811 4.79086 20.0838 4.99357C20.2865 5.19627 20.4473 5.43695 20.5569 5.70184C20.6664 5.96673 20.7227 6.25063 20.7225 6.5373C20.7227 6.82396 20.6664 7.10786 20.5569 7.37275C20.4473 7.63765 20.2865 7.87833 20.0838 8.08103C19.8811 8.28373 19.6405 8.44447 19.3756 8.55405C19.1107 8.66364 18.8268 8.71991 18.5401 8.71965C18.2534 8.71991 17.9695 8.66364 17.7047 8.55405C17.4398 8.44447 17.1991 8.28373 16.9964 8.08103C16.7937 7.87833 16.6329 7.63765 16.5234 7.37275C16.4138 7.10786 16.3575 6.82396 16.3578 6.5373C16.3575 6.25063 16.4138 5.96673 16.5234 5.70184C16.6329 5.43695 16.7937 5.19627 16.9964 4.99357C17.1991 4.79086 17.4398 4.63012 17.7047 4.52054C17.9695 4.41096 18.2534 4.35469 18.5401 4.35494Z" fill="white"/>
<path d="M25.5905 50.3286C38.3027 50.3286 37.5089 44.8159 37.5089 44.8159L37.4948 39.1047H25.3636V37.39H42.3128C42.3128 37.39 50.4474 38.3126 50.4474 25.4857C50.4474 12.659 43.3474 13.1139 43.3474 13.1139H39.1101V19.0659C39.1101 19.0659 39.3385 26.1659 32.1234 26.1659H20.0917C20.0917 26.1659 13.3319 26.0567 13.3319 32.6992V43.6822C13.3319 43.6822 12.3054 50.3286 25.5903 50.3286H25.5905ZM32.2795 46.4882C31.9929 46.4885 31.709 46.4322 31.4441 46.3226C31.1792 46.2131 30.9385 46.0523 30.7358 45.8496C30.5331 45.6469 30.3723 45.4062 30.2628 45.1413C30.1532 44.8765 30.0969 44.5926 30.0972 44.3059C30.0969 44.0192 30.1531 43.7353 30.2627 43.4704C30.3723 43.2055 30.533 42.9648 30.7357 42.762C30.9384 42.5593 31.1791 42.3986 31.444 42.289C31.7089 42.1794 31.9928 42.1231 32.2795 42.1233C32.5662 42.1231 32.8501 42.1794 33.115 42.2889C33.3799 42.3985 33.6205 42.5593 33.8232 42.762C34.0259 42.9647 34.1867 43.2053 34.2963 43.4702C34.4059 43.7351 34.4621 44.019 34.4619 44.3057C34.4621 44.5924 34.4059 44.8763 34.2963 45.1411C34.1867 45.406 34.0259 45.6467 33.8232 45.8494C33.6205 46.0521 33.3799 46.2129 33.115 46.3225C32.8501 46.432 32.5662 46.4885 32.2795 46.4882Z" fill="white"/>
</g>
<defs>
<clipPath id="clip0_679_819">
<rect width="50.2008" height="50" fill="white" transform="translate(0.34375 0.5)"/>
</clipPath>
</defs>
</svg>
