<svg width="76" height="55" viewBox="0 0 76 55" fill="none" xmlns="http://www.w3.org/2000/svg">
<path d="M3.67092 50.429H1.38482V54.3662H0.0947266V44.6335H3.31664C4.41288 44.6335 5.25514 44.8832 5.84337 45.3824C6.43606 45.8812 6.73242 46.6077 6.73242 47.5612C6.73242 48.1674 6.56754 48.6954 6.23776 49.1457C5.91246 49.5957 5.45792 49.9322 4.87413 50.1548L7.16023 54.2858V54.3662H5.78322L3.67092 50.429ZM1.38482 49.3795H3.35677C3.99402 49.3795 4.4998 49.2145 4.87413 48.8848C5.25291 48.5551 5.4423 48.1139 5.4423 47.5612C5.4423 46.9598 5.26182 46.4986 4.90087 46.1777C4.54436 45.8568 4.02743 45.6941 3.35006 45.6897H1.38482V49.3795ZM11.3448 54.5C10.3643 54.5 9.56662 54.1791 8.95167 53.5373C8.33667 52.8911 8.0292 52.0287 8.0292 50.9505V50.7231C8.0292 50.0057 8.16511 49.3663 8.43694 48.8048C8.71325 48.2386 9.09649 47.7974 9.58668 47.4813C10.0813 47.1604 10.6161 46.9997 11.191 46.9997C12.1313 46.9997 12.8622 47.3095 13.3834 47.9289C13.9049 48.5483 14.1655 49.4351 14.1655 50.5893V51.104H9.26582C9.28364 51.8173 9.49089 52.3943 9.88749 52.8355C10.2886 53.272 10.7966 53.4905 11.4116 53.4905C11.8484 53.4905 12.2181 53.4014 12.521 53.2232C12.8243 53.045 13.0893 52.8088 13.3167 52.5146L14.072 53.1029C13.4657 54.0341 12.5569 54.5 11.3448 54.5ZM11.191 48.016C10.6919 48.016 10.273 48.1986 9.93428 48.5639C9.5956 48.9251 9.38615 49.4331 9.30594 50.0881H12.929V49.9946C12.8934 49.3663 12.724 48.8804 12.4211 48.5371C12.1178 48.1898 11.7078 48.016 11.191 48.016ZM20.068 54.3662C19.9965 54.2235 19.9386 53.9697 19.8942 53.6041C19.3192 54.2011 18.633 54.5 17.8353 54.5C17.1224 54.5 16.5365 54.2994 16.0773 53.8982C15.6229 53.4926 15.3955 52.9802 15.3955 52.3608C15.3955 51.6079 15.6809 51.024 16.2512 50.6096C16.8259 50.1904 17.6327 49.981 18.6709 49.981H19.8742V49.4131C19.8742 48.9807 19.7448 48.6374 19.4866 48.3836C19.228 48.1251 18.8468 47.996 18.3433 47.996C17.9021 47.996 17.5324 48.1071 17.2338 48.3301C16.9353 48.5527 16.7859 48.8225 16.7859 49.1389H15.5426C15.5426 48.7781 15.6697 48.4304 15.9235 48.0959C16.182 47.7574 16.5297 47.4901 16.9665 47.2939C17.4077 47.098 17.8909 46.9997 18.4168 46.9997C19.2504 46.9997 19.903 47.2092 20.3754 47.6283C20.8477 48.0427 21.0927 48.6154 21.1107 49.346V52.6749C21.1107 53.3391 21.1954 53.867 21.3648 54.2591V54.3662H20.068ZM18.0159 53.4238C18.4036 53.4238 18.7712 53.3235 19.1189 53.1229C19.4662 52.9223 19.718 52.6617 19.8742 52.3408V50.8569H18.9047C17.3897 50.8569 16.632 51.3002 16.632 52.187C16.632 52.5746 16.7615 52.8779 17.0197 53.0961C17.2782 53.3143 17.6103 53.4238 18.0159 53.4238ZM25.9503 53.4905C26.3914 53.4905 26.7771 53.3567 27.1068 53.0893C27.4365 52.822 27.6191 52.4879 27.6547 52.0867H28.8248C28.8024 52.5011 28.6598 52.8955 28.3968 53.2699C28.1338 53.6444 27.7818 53.9429 27.3406 54.1656C26.9038 54.3885 26.4406 54.5 25.9503 54.5C24.9655 54.5 24.1811 54.1723 23.5972 53.5173C23.0181 52.8576 22.7284 51.9576 22.7284 50.8166V50.6096C22.7284 49.9054 22.8575 49.2792 23.1161 48.7313C23.3746 48.183 23.7443 47.7574 24.2258 47.4545C24.7114 47.1512 25.2841 46.9997 25.9435 46.9997C26.7547 46.9997 27.4277 47.2427 27.9624 47.7286C28.5015 48.2142 28.7889 48.8448 28.8248 49.6201H27.6547C27.6191 49.1522 27.4409 48.7689 27.12 48.4704C26.8038 48.1674 26.4114 48.016 25.9435 48.016C25.3152 48.016 24.8273 48.243 24.4796 48.6978C24.1367 49.1478 23.9649 49.8007 23.9649 50.6563V50.8902C23.9649 51.7234 24.1367 52.3652 24.4796 52.8152C24.8229 53.2655 25.3132 53.4905 25.9503 53.4905ZM31.8928 45.3824V47.1336H33.2431V48.0895H31.8928V52.5746C31.8928 52.8643 31.9531 53.0826 32.0734 53.2296C32.1937 53.3723 32.3987 53.4438 32.6884 53.4438C32.8307 53.4438 33.0269 53.417 33.2763 53.3635V54.3662C32.951 54.4553 32.6349 54.5 32.3272 54.5C31.7749 54.5 31.3581 54.3326 31.0772 53.9985C30.7966 53.6644 30.6563 53.1896 30.6563 52.5746V48.0895H29.3392V47.1336H30.6563V45.3824H31.8928ZM45.7632 54.3662H44.4728L39.5733 46.8662V54.3662H38.2833V44.6335H39.5733L44.4864 52.167V44.6335H45.7632V54.3662ZM52.314 54.3662C52.2425 54.2235 52.1845 53.9697 52.1402 53.6041C51.5651 54.2011 50.8789 54.5 50.0813 54.5C49.3683 54.5 48.7821 54.2994 48.3233 53.8982C47.8689 53.4926 47.6415 52.9802 47.6415 52.3608C47.6415 51.6079 47.9265 51.024 48.4971 50.6096C49.0718 50.1904 49.8786 49.981 50.9169 49.981H52.1202V49.4131C52.1202 48.9807 51.9907 48.6374 51.7322 48.3836C51.474 48.1251 51.0928 47.996 50.5892 47.996C50.148 47.996 49.7783 48.1071 49.4798 48.3301C49.1813 48.5527 49.0318 48.8225 49.0318 49.1389H47.7886C47.7886 48.7781 47.9156 48.4304 48.1694 48.0959C48.428 47.7574 48.7757 47.4901 49.2124 47.2939C49.6536 47.098 50.1368 46.9997 50.6627 46.9997C51.496 46.9997 52.149 47.2092 52.6213 47.6283C53.0937 48.0427 53.3387 48.6154 53.3567 49.346V52.6749C53.3567 53.3391 53.4414 53.867 53.6108 54.2591V54.3662H52.314ZM50.2619 53.4238C50.6495 53.4238 51.0172 53.3235 51.3649 53.1229C51.7122 52.9223 51.9639 52.6617 52.1202 52.3408V50.8569H51.1507C49.6357 50.8569 48.878 51.3002 48.878 52.187C48.878 52.5746 49.0074 52.8779 49.2656 53.0961C49.5242 53.3143 49.8563 53.4238 50.2619 53.4238ZM56.9729 45.3824V47.1336H58.3233V48.0895H56.9729V52.5746C56.9729 52.8643 57.0333 53.0826 57.1535 53.2296C57.2738 53.3723 57.4789 53.4438 57.7686 53.4438C57.9109 53.4438 58.1071 53.417 58.3568 53.3635V54.3662C58.0312 54.4553 57.715 54.5 57.4073 54.5C56.855 54.5 56.4382 54.3326 56.1573 53.9985C55.8767 53.6644 55.7364 53.1896 55.7364 52.5746V48.0895H54.4197V47.1336H55.7364V45.3824H56.9729ZM61.1175 54.3662H59.8807V47.1336H61.1175V54.3662ZM59.7804 45.215C59.7804 45.0147 59.8407 44.8453 59.961 44.707C60.0857 44.5688 60.2683 44.5 60.5089 44.5C60.7498 44.5 60.9325 44.5688 61.0572 44.707C61.1819 44.8453 61.2442 45.0147 61.2442 45.215C61.2442 45.4156 61.1819 45.5826 61.0572 45.7165C60.9325 45.85 60.7498 45.9171 60.5089 45.9171C60.2683 45.9171 60.0857 45.85 59.961 45.7165C59.8407 45.5826 59.7804 45.4156 59.7804 45.215ZM65.4891 52.6885L67.2803 47.1336H68.5439L65.9503 54.3662H65.0076L62.3875 47.1336H63.6508L65.4891 52.6885ZM72.6413 54.5C71.661 54.5 70.8634 54.1791 70.2483 53.5373C69.6333 52.8911 69.326 52.0287 69.326 50.9505V50.7231C69.326 50.0057 69.4618 49.3663 69.7336 48.8048C70.0098 48.2386 70.393 47.7974 70.8834 47.4813C71.3781 47.1604 71.9128 46.9997 72.4875 46.9997C73.4278 46.9997 74.1587 47.3095 74.6802 47.9289C75.2014 48.5483 75.4623 49.4351 75.4623 50.5893V51.104H70.5624C70.5804 51.8173 70.7874 52.3943 71.1842 52.8355C71.5851 53.272 72.0934 53.4905 72.7081 53.4905C73.1449 53.4905 73.5149 53.4014 73.8179 53.2232C74.1208 53.045 74.3861 52.8088 74.6135 52.5146L75.3688 53.1029C74.7626 54.0341 73.8534 54.5 72.6413 54.5ZM72.4875 48.016C71.9887 48.016 71.5695 48.1986 71.231 48.5639C70.8922 48.9251 70.6828 49.4331 70.6028 50.0881H74.2255V49.9946C74.1899 49.3663 74.0205 48.8804 73.7176 48.5371C73.4146 48.1898 73.0046 48.016 72.4875 48.016Z" fill="white"/>
<path d="M52.173 13.5356L50.7255 13.0531C50.7255 12.7314 50.8863 12.4097 50.8863 12.0881C52.0122 6.78043 51.208 2.43785 48.7954 0.990326C46.3829 -0.296364 42.5228 0.990326 38.6627 4.36789C38.3411 4.68956 37.8586 5.01123 37.5369 5.3329C37.2152 5.17207 37.0544 4.85039 36.7327 4.68956C32.8726 1.15116 28.8517 -0.296364 26.4392 1.15116C24.0267 2.43785 23.3833 6.61959 24.3483 11.6056C24.5092 12.0881 24.5092 12.5706 24.67 13.0531C24.0267 13.2139 23.5441 13.3748 23.0616 13.5356C18.2366 15.1439 15.1807 17.8782 15.1807 20.4515C15.1807 23.1858 18.3974 26.0808 23.3833 27.6892C23.705 27.85 24.1875 28.0108 24.67 28.0108C24.5092 28.4934 24.3483 29.1367 24.3483 29.6192C23.3833 34.6051 24.1875 38.4652 26.4392 39.9127C28.8517 41.3602 32.8726 39.9127 36.8935 36.3743C37.2152 36.0527 37.5369 35.731 37.8586 35.5701C38.1802 35.8918 38.6627 36.3743 39.1453 36.696C43.0053 40.0736 46.7046 41.3602 49.1171 39.9127C51.5296 38.4652 52.3338 34.2835 51.3688 29.1367C51.3688 28.815 51.208 28.3325 51.0471 27.85C51.3688 27.6892 51.6905 27.6892 51.8513 27.5283C56.9981 25.7591 60.3756 23.0249 60.3756 20.2907C60.2148 17.8782 56.9981 15.3048 52.173 13.5356ZM40.1103 5.97625C43.4878 3.0812 46.5437 1.95534 47.9912 2.75952C49.4388 3.56371 50.0821 7.1021 49.1171 11.7664C49.1171 12.0881 48.9563 12.4097 48.9563 12.7314C47.0262 12.2489 44.9354 11.9272 43.0053 11.7664C41.8795 10.158 40.5928 8.54967 39.1453 6.94127L40.1103 5.97625ZM28.5301 22.8641C29.0126 23.6683 29.3342 24.4724 29.8168 25.2766C30.2993 26.0808 30.7818 26.885 31.2643 27.5283C29.8168 27.3675 28.5301 27.2067 27.0825 26.885C27.4042 25.5983 27.8867 24.3116 28.5301 22.8641ZM28.5301 18.3607C27.8867 17.074 27.5651 15.7873 27.0825 14.5006C28.3692 14.1789 29.8168 14.0181 31.1034 13.8573C30.6209 14.6614 30.1384 15.3048 29.6559 16.109C29.3342 16.7523 28.8517 17.5565 28.5301 18.3607ZM29.4951 20.6124C30.1384 19.3257 30.7818 18.1998 31.4251 16.9131C32.0685 15.7873 32.8726 14.5006 33.6768 13.3748C34.9635 13.2139 36.411 13.2139 37.8586 13.2139C39.3061 13.2139 40.5928 13.2139 42.0403 13.3748C42.8445 14.5006 43.4878 15.6265 44.1312 16.9131C44.7745 18.039 45.4179 19.3257 46.0612 20.6124C45.4179 21.8991 44.7745 23.0249 44.1312 24.3116C43.4878 25.4375 42.6837 26.7242 42.0403 27.85C40.7536 28.0108 39.3061 28.0108 37.8586 28.0108C36.411 28.0108 35.1244 28.0108 33.8377 27.85C33.0335 26.7242 32.3901 25.5983 31.586 24.3116C30.7818 23.0249 30.1384 21.8991 29.4951 20.6124ZM45.5787 25.2766C46.0612 24.4724 46.5437 23.6683 46.8654 22.8641C47.5087 24.1508 47.9912 25.4375 48.3129 26.885C46.8654 27.2067 45.5787 27.3675 44.1312 27.5283C44.7745 26.7242 45.257 25.92 45.5787 25.2766ZM46.8654 18.3607C46.3829 17.5565 46.0612 16.7523 45.5787 15.9481C45.0962 15.1439 44.6137 14.5006 44.292 13.6964C45.7395 13.8573 47.0262 14.1789 48.4738 14.3398C47.9912 15.7873 47.5087 17.074 46.8654 18.3607ZM37.6977 8.22799C38.6627 9.19301 39.4669 10.3189 40.2711 11.4447C38.5019 11.2839 36.7327 11.2839 34.9635 11.4447C35.9285 10.3189 36.8935 9.19301 37.6977 8.22799ZM27.4042 2.75952C28.8517 1.95534 32.2293 3.0812 35.7677 6.29792L36.411 6.94127C34.9635 8.38883 33.6768 9.99719 32.551 11.7664C30.4601 11.9272 28.5301 12.2489 26.6 12.7314C26.4392 12.2489 26.4392 11.7664 26.2784 11.2839C25.3133 6.94126 25.9567 3.56371 27.4042 2.75952ZM25.1525 26.4025C24.8308 26.2416 24.3483 26.2416 24.0267 26.0808C21.7749 25.2766 20.0057 24.3116 18.7191 23.3466C17.5932 22.3816 17.1107 21.4166 17.1107 20.6124C17.1107 19.004 19.5232 16.9131 23.705 15.4656C24.1875 15.3048 24.67 15.1439 25.3133 14.9831C25.7959 16.9131 26.4392 18.8432 27.4042 20.6124C26.4392 22.5424 25.7959 24.4724 25.1525 26.4025ZM35.6069 35.2485C33.8377 36.8568 32.0685 37.8219 30.6209 38.4652C29.1734 38.9477 28.2084 38.9477 27.4042 38.626C25.9567 37.8219 25.3133 34.6051 26.1175 30.4234C26.2784 29.78 26.4392 29.2975 26.4392 28.6542C28.3692 29.1367 30.4601 29.4584 32.551 29.4584C33.6768 31.0667 34.9635 32.6751 36.411 34.2835C36.0894 34.6051 35.9285 34.9268 35.6069 35.2485ZM37.6977 32.9968C36.7327 32.0317 35.9285 30.9059 34.9635 29.78H40.2711C39.6278 30.9059 38.6627 32.0317 37.6977 32.9968ZM49.4388 35.731C49.1171 37.1785 48.6346 38.1435 47.9912 38.4652C46.5437 39.2694 43.4878 38.1435 40.2711 35.4093C39.9494 35.0876 39.4669 34.766 39.1453 34.4443C40.4319 32.9968 41.7186 31.3884 42.8445 29.6192C44.9354 29.4584 46.8654 29.1367 48.9563 28.6542C49.1171 28.9759 49.1171 29.4584 49.2779 29.78C49.7604 32.0317 49.7604 34.1226 49.4388 35.731ZM51.0471 26.0808C50.7255 26.0808 50.5646 26.2416 50.243 26.2416C49.5996 24.3116 48.7954 22.3816 47.9912 20.4515C48.7954 18.6823 49.5996 16.7523 50.243 14.8223C50.7255 14.9831 51.208 15.1439 51.5296 15.3048C55.7114 16.7523 58.2848 18.8432 58.2848 20.4515C58.2848 22.3816 55.5505 24.6333 51.0471 26.0808Z" fill="white"/>
<path d="M37.6974 24.6332C38.5015 24.6332 39.3057 24.4724 39.9491 23.9899C40.5924 23.5074 41.0749 22.864 41.3966 22.2207C41.7183 21.4165 41.7183 20.6123 41.5574 19.8081C41.3966 19.0039 41.0749 18.3606 40.4316 17.7173C39.9491 17.0739 39.1449 16.7522 38.3407 16.5914C37.5365 16.4306 36.7323 16.5914 35.9282 16.7522C35.124 17.0739 34.4806 17.5564 34.159 18.1998C33.6765 18.8431 33.5156 19.6473 33.5156 20.4515C33.5156 20.934 33.6765 21.5773 33.8373 22.0598C33.9981 22.5423 34.3198 23.0248 34.6415 23.3465C34.9632 23.6682 35.4457 23.9899 35.9282 24.1507C36.5715 24.4724 37.2149 24.6332 37.6974 24.6332Z" fill="white"/>
</svg>
