<svg width="57" height="50" viewBox="0 0 57 50" fill="none" xmlns="http://www.w3.org/2000/svg">
<path d="M46.2404 16.2945L44.431 15.6913C44.431 15.2893 44.632 14.8872 44.632 14.4851C46.0394 7.85054 45.0341 2.42231 42.0185 0.612907C39.0028 -0.995454 34.1777 0.612907 29.3526 4.83486C28.9505 5.23695 28.3474 5.63904 27.9453 6.04113C27.5432 5.84008 27.3422 5.43799 26.9401 5.23695C22.115 0.813953 17.0888 -0.995454 14.0732 0.813953C11.0575 2.42231 10.2533 7.64949 11.4596 13.8819C11.6606 14.4851 11.6606 15.0882 11.8617 15.6913C11.0575 15.8924 10.4544 16.0934 9.85122 16.2945C3.81986 18.3049 0 21.7227 0 24.9394C0 28.3572 4.02091 31.976 10.2533 33.9865C10.6554 34.1875 11.2585 34.3886 11.8617 34.3886C11.6606 34.9917 11.4596 35.7959 11.4596 36.399C10.2533 42.6314 11.2585 47.4565 14.0732 49.2659C17.0888 51.0753 22.115 49.2659 27.1411 44.8429C27.5432 44.4408 27.9453 44.0387 28.3474 43.8377C28.7495 44.2398 29.3526 44.8429 29.9557 45.245C34.7808 49.4669 39.4049 51.0753 42.4205 49.2659C45.4362 47.4565 46.4415 42.2293 45.2352 35.7959C45.2352 35.3938 45.0341 34.7906 44.8331 34.1875C45.2352 33.9865 45.6373 33.9865 45.8383 33.7854C52.2718 31.5739 56.4937 28.1562 56.4937 24.7384C56.2927 21.7227 52.2718 18.506 46.2404 16.2945ZM31.162 6.84531C35.384 3.2265 39.2038 1.81918 41.0132 2.8244C42.8226 3.82963 43.6268 8.25263 42.4205 14.083C42.4205 14.4851 42.2195 14.8872 42.2195 15.2893C39.807 14.6861 37.1934 14.284 34.7808 14.083C33.3735 12.0725 31.7651 10.0621 29.9557 8.05158L31.162 6.84531ZM16.6868 27.9551C17.2899 28.9603 17.692 29.9656 18.2951 30.9708C18.8983 31.976 19.5014 32.9812 20.1045 33.7854C18.2951 33.5844 16.6868 33.3833 14.8773 32.9812C15.2794 31.3729 15.8826 29.7645 16.6868 27.9551ZM16.6868 22.3258C15.8826 20.7175 15.4805 19.1091 14.8773 17.5008C16.4857 17.0987 18.2951 16.8976 19.9035 16.6966C19.3003 17.7018 18.6972 18.506 18.0941 19.5112C17.692 20.3154 17.0888 21.3206 16.6868 22.3258ZM17.893 25.1405C18.6972 23.5321 19.5014 22.1248 20.3056 20.5164C21.1098 19.1091 22.115 17.5008 23.1202 16.0934C24.7286 15.8924 26.538 15.8924 28.3474 15.8924C30.1568 15.8924 31.7651 15.8924 33.5746 16.0934C34.5798 17.5008 35.384 18.9081 36.1881 20.5164C36.9923 21.9237 37.7965 23.5321 38.6007 25.1405C37.7965 26.7488 36.9923 28.1562 36.1881 29.7645C35.384 31.1718 34.3787 32.7802 33.5746 34.1875C31.9662 34.3886 30.1568 34.3886 28.3474 34.3886C26.538 34.3886 24.9296 34.3886 23.3212 34.1875C22.316 32.7802 21.5118 31.3729 20.5066 29.7645C19.5014 28.1562 18.6972 26.7488 17.893 25.1405ZM37.9976 30.9708C38.6007 29.9656 39.2038 28.9603 39.6059 27.9551C40.4101 29.5635 41.0132 31.1718 41.4153 32.9812C39.6059 33.3833 37.9976 33.5844 36.1881 33.7854C36.9923 32.7802 37.5955 31.775 37.9976 30.9708ZM39.6059 22.3258C39.0028 21.3206 38.6007 20.3154 37.9976 19.3102C37.3944 18.3049 36.7913 17.5008 36.3892 16.4955C38.1986 16.6966 39.807 17.0987 41.6164 17.2997C41.0132 19.1091 40.4101 20.7175 39.6059 22.3258ZM28.1463 9.65999C29.3526 10.8663 30.3578 12.2736 31.3631 13.6809C29.1516 13.4798 26.9401 13.4798 24.7286 13.6809C25.9348 12.2736 27.1411 10.8663 28.1463 9.65999ZM15.2794 2.8244C17.0888 1.81918 21.3108 3.2265 25.7338 7.2474L26.538 8.05158C24.7286 9.86104 23.1202 11.8715 21.7129 14.083C19.0993 14.284 16.6868 14.6861 14.2742 15.2893C14.0732 14.6861 14.0732 14.083 13.8721 13.4798C12.6659 8.05158 13.47 3.82963 15.2794 2.8244ZM12.4648 32.3781C12.0627 32.1771 11.4596 32.1771 11.0575 31.976C8.24286 30.9708 6.03136 29.7645 4.423 28.5582C3.01568 27.352 2.41254 26.1457 2.41254 25.1405C2.41254 23.13 5.42822 20.5164 10.6554 18.707C11.2585 18.506 11.8617 18.3049 12.6659 18.1039C13.269 20.5164 14.0732 22.929 15.2794 25.1405C14.0732 27.553 13.269 29.9656 12.4648 32.3781ZM25.5327 43.4356C23.3212 45.446 21.1098 46.6523 19.3003 47.4565C17.4909 48.0596 16.2847 48.0596 15.2794 47.6575C13.47 46.6523 12.6659 42.6314 13.6711 37.4042C13.8721 36.6001 14.0732 35.9969 14.0732 35.1927C16.4857 35.7959 19.0993 36.198 21.7129 36.198C23.1202 38.2084 24.7286 40.2189 26.538 42.2293C26.1359 42.6314 25.9348 43.0335 25.5327 43.4356ZM28.1463 40.621C26.9401 39.4147 25.9348 38.0074 24.7286 36.6001H31.3631C30.5589 38.0074 29.3526 39.4147 28.1463 40.621ZM42.8226 44.0387C42.4205 45.8481 41.8174 47.0544 41.0132 47.4565C39.2038 48.4617 35.384 47.0544 31.3631 43.6366C30.961 43.2345 30.3578 42.8325 29.9557 42.4304C31.5641 40.621 33.1725 38.6105 34.5798 36.399C37.1934 36.198 39.6059 35.7959 42.2195 35.1927C42.4205 35.5948 42.4205 36.198 42.6216 36.6001C43.2247 39.4147 43.2247 42.0283 42.8226 44.0387ZM44.8331 31.976C44.431 31.976 44.23 32.1771 43.8279 32.1771C43.0237 29.7645 42.0185 27.352 41.0132 24.9394C42.0185 22.7279 43.0237 20.3154 43.8279 17.9028C44.431 18.1039 45.0341 18.3049 45.4362 18.506C50.6634 20.3154 53.8801 22.929 53.8801 24.9394C53.8801 27.352 50.4624 30.1666 44.8331 31.976Z" fill="#FFFFFF"/>
<path d="M28.1464 30.1665C29.1516 30.1665 30.1568 29.9655 30.961 29.3624C31.7652 28.7592 32.3683 27.955 32.7704 27.1509C33.1725 26.1456 33.1725 25.1404 32.9715 24.1352C32.7704 23.13 32.3683 22.3258 31.5641 21.5216C30.961 20.7174 29.9558 20.3153 28.9505 20.1143C27.9453 19.9132 26.9401 20.1143 25.9349 20.3153C24.9296 20.7174 24.1255 21.3206 23.7234 22.1247C23.1202 22.9289 22.9192 23.9341 22.9192 24.9394C22.9192 25.5425 23.1202 26.3467 23.3213 26.9498C23.5223 27.553 23.9244 28.1561 24.3265 28.5582C24.7286 28.9603 25.3317 29.3624 25.9349 29.5634C26.739 29.9655 27.5432 30.1665 28.1464 30.1665Z" fill="#FFFFFF"/>
</svg>
