<svg width="41" height="41" viewBox="0 0 41 41" fill="none" xmlns="http://www.w3.org/2000/svg">
<g clip-path="url(#clip0_678_480)">
<path d="M36.5952 2.58585C36.0328 3.92941 35.3193 5.20528 34.4601 6.37699C30.7002 2.6171 25.5967 0.502808 20.2798 0.502808C9.28129 0.502808 0.230469 9.56404 0.230469 20.5781C0.230469 26.0722 2.48015 31.3318 6.45877 35.123L7.19825 35.7791C10.8123 38.8256 15.3898 40.5024 20.1131 40.5024C30.57 40.5024 39.3604 32.3057 40.1051 21.8592C40.6519 16.7453 39.1521 10.2775 36.5952 2.58585ZM9.30733 35.2375C8.98446 35.6385 8.48973 35.8729 7.97418 35.8729C7.0316 35.8729 6.26088 35.0969 6.26088 34.1544C6.26088 33.2118 7.03681 32.4359 7.97418 32.4359C8.36475 32.4359 8.75011 32.5712 9.05215 32.8212C9.78643 33.4149 9.90099 34.5033 9.30733 35.2375ZM36.5119 29.228C31.5646 35.826 20.9984 33.6024 14.2233 33.92C14.2233 33.92 13.0203 33.9929 11.8122 34.1908C11.8122 34.1908 12.2652 33.9981 12.8537 33.7742C17.6083 32.1182 19.8579 31.7953 22.7482 30.3111C28.1901 27.5407 33.5696 21.479 34.6892 15.1726C32.6166 21.2395 26.3362 26.4523 20.613 28.5718C16.6917 30.0195 9.60937 31.4256 9.60937 31.4256L9.32295 31.2746C4.50071 28.9259 4.35489 18.4743 13.1193 15.0997C16.9573 13.6208 20.6287 14.4332 24.7739 13.4437C29.2004 12.3918 34.3195 9.06932 36.4025 4.73659C38.7355 11.6679 41.5424 22.5206 36.5119 29.228Z" fill="white"/>
</g>
<defs>
<clipPath id="clip0_678_480">
<rect width="39.984" height="40" fill="white" transform="translate(0.230469 0.5)"/>
</clipPath>
</defs>
</svg>
