<svg width="43" height="50" viewBox="0 0 43 50" fill="none" xmlns="http://www.w3.org/2000/svg">
<mask id="mask0_658_217" style="mask-type:luminance" maskUnits="userSpaceOnUse" x="0" y="0" width="42" height="50">
<path d="M41.063 0L0.9375 0L0.9375 50H41.063V0Z" fill="white"/>
</mask>
<g mask="url(#mask0_658_217)">
<path d="M2.48476 45.9756L0.939311 4.79212C0.888057 3.43177 1.93085 2.27896 3.28931 2.19433L38.319 0.00498108C39.7016 -0.0815393 40.8925 0.969401 40.9791 2.35215C40.9822 2.4042 40.984 2.45639 40.984 2.50859V47.3854C40.984 48.7709 39.861 49.8939 38.4755 49.8939C38.4379 49.8939 38.4002 49.8931 38.363 49.8914L4.87912 48.3875C3.57505 48.329 2.53382 47.2801 2.48476 45.9756Z" fill="white"/>
<mask id="mask1_658_217" style="mask-type:luminance" maskUnits="userSpaceOnUse" x="0" y="0" width="41" height="50">
<path d="M2.48476 45.9756L0.939311 4.79212C0.888057 3.43177 1.93085 2.27896 3.28931 2.19433L38.319 0.00498108C39.7016 -0.0815393 40.8925 0.969401 40.9791 2.35215C40.9822 2.4042 40.984 2.45639 40.984 2.50859V47.3854C40.984 48.7709 39.861 49.8939 38.4755 49.8939C38.4379 49.8939 38.4002 49.8931 38.363 49.8914L4.87912 48.3875C3.57505 48.329 2.53382 47.2801 2.48476 45.9756Z" fill="white"/>
</mask>
<g mask="url(#mask1_658_217)">
<path d="M30.5088 6.13276L30.7481 0.3779L35.5588 0L35.766 5.93464C35.7685 6.006 35.7506 6.07661 35.7144 6.13813C35.6781 6.19964 35.625 6.24949 35.5613 6.2818C35.4976 6.31409 35.426 6.3275 35.355 6.32043C35.2839 6.31335 35.2164 6.28608 35.1604 6.24185L33.3054 4.78025L31.1089 6.44639C31.0524 6.48936 30.9848 6.51534 30.9139 6.52131C30.8431 6.52728 30.7723 6.51298 30.7093 6.48008C30.6463 6.44719 30.5941 6.39706 30.5586 6.33556C30.523 6.27405 30.5058 6.20371 30.5088 6.13276ZM24.3566 18.8056C24.3566 19.7818 30.9305 19.3139 31.813 18.6285C31.813 11.9823 28.2469 8.48981 21.7166 8.48981C15.1865 8.48981 11.5277 12.0365 11.5277 17.3566C11.5277 26.6225 24.0324 26.8 24.0324 31.8541C24.0324 33.2729 23.3375 34.1151 21.8093 34.1151C19.8179 34.1151 19.0304 33.098 19.123 29.64C19.123 28.8899 11.5277 28.656 11.2961 29.64C10.7064 38.0201 15.9274 40.4374 21.9019 40.4374C27.6911 40.4374 32.2297 37.3516 32.2297 31.7655C32.2297 21.8345 19.5399 22.1005 19.5399 17.1794C19.5399 15.1844 21.0219 14.9184 21.902 14.9184C22.8281 14.9184 24.4955 15.0816 24.3566 18.8056Z" fill="#151515"/>
</g>
</g>
</svg>
