<svg width="50" height="30" viewBox="0 0 50 30" fill="none" xmlns="http://www.w3.org/2000/svg">
<path d="M25 0C18.3333 0 14.1666 3.33337 12.5 9.99999C15 6.66662 17.9166 5.41662 21.25 6.25C23.152 6.725 24.5104 8.10412 26.0166 9.63337C28.4688 12.1209 31.3041 15 37.5 15C44.1666 15 48.3333 11.6666 50 5C47.5 8.33337 44.5833 9.58337 41.25 8.75C39.3479 8.27499 37.9895 6.89587 36.4833 5.36662C34.0333 2.87912 31.1979 0 25 0ZM12.5 15C5.83333 15 1.66667 18.3334 0 25C2.5 21.6666 5.41666 20.4166 8.75 21.25C10.6521 21.725 12.0104 23.1041 13.5166 24.6334C15.9688 27.1209 18.8041 30 25 30C31.6666 30 35.8333 26.6666 37.5 20C35 23.3334 32.0833 24.5834 28.75 23.75C26.8479 23.275 25.4895 21.8959 23.9833 20.3666C21.5333 17.8791 18.6979 15 12.5 15Z" fill="#FFFFFF"/>
</svg>
