<svg width="61" height="40" viewBox="0 0 61 40" fill="none" xmlns="http://www.w3.org/2000/svg">
<path d="M26.3631 0.52645H30.5072V7.68078H19.3032V39.5108L19.0063 39.5918C18.6013 39.6998 13.2693 39.6998 12.1219 39.5783L11.204 39.4973V7.68078H0V0.52645L3.55017 0.485953C5.494 0.458956 10.4885 0.458956 14.6462 0.485953C18.8038 0.512951 24.0683 0.52645 26.3631 0.52645ZM57.9907 36.1361C56.3438 37.8775 54.5755 38.8494 51.6328 39.6458C50.3504 39.9968 50.1344 40.0103 47.2457 39.9968C44.3569 39.9833 44.1275 39.9833 42.7236 39.6188C39.0924 38.6874 36.1632 36.8651 34.1654 34.2868C33.5984 33.5579 32.667 32.046 32.667 31.857C32.667 31.803 32.802 31.6815 32.9775 31.6006C33.153 31.5196 33.5174 31.2901 33.8144 31.1146C34.1114 30.9391 34.6513 30.6151 35.0158 30.4262C35.3803 30.2372 36.4332 29.6162 37.3511 29.0628C38.269 28.5093 39.1059 28.0639 39.2004 28.0639C39.2949 28.0639 39.4704 28.2529 39.6054 28.4823C40.4153 29.8457 42.3051 31.5871 43.6415 32.181C44.4649 32.532 46.2873 32.9234 47.1647 32.9234C47.9746 32.9234 49.4595 32.5725 50.2559 32.208C51.1063 31.8165 51.5383 31.4251 52.0512 30.6421C52.4022 30.0887 52.4427 29.9402 52.4292 28.8873C52.4292 27.9154 52.3752 27.6454 52.1052 27.2C51.3493 25.9581 50.3234 25.3101 46.1658 23.4743C41.8732 21.571 39.9428 20.4371 38.377 18.9117C37.2161 17.7778 36.9866 17.4674 36.2577 16.05C35.3128 14.2277 35.1913 13.6337 35.1778 10.9205C35.1643 9.01716 35.2048 8.39622 35.4073 7.74828C35.6907 6.77637 36.6086 4.90004 37.0271 4.42759C37.891 3.41518 38.2015 3.10471 38.8089 2.60526C40.6448 1.0934 43.5065 0.0944912 46.2468 0C46.5572 0 47.5831 0.0539941 48.5415 0.121488C51.2953 0.350966 53.1716 1.0259 54.9805 2.47027C56.3438 3.55017 58.4091 6.08793 58.2067 6.4254C58.0717 6.62788 52.6857 10.2185 52.3347 10.3265C52.1187 10.394 51.9702 10.313 51.6733 9.96207C49.8374 7.76177 49.095 7.28932 47.3132 7.18133C46.0443 7.10033 45.3693 7.24882 44.5189 7.81577C43.628 8.40971 43.196 9.31413 43.196 10.5695C43.2095 12.4053 43.9115 13.2693 46.5032 14.5516C48.1771 15.3751 49.6079 16.05 49.7159 16.05C49.8779 16.05 53.3471 17.7778 54.2515 18.3178C58.4631 20.7881 60.1775 23.3258 60.6229 27.6994C60.9469 30.9931 60.0155 34.0033 57.9907 36.1361Z" fill="#FFFFFF"/>
</svg>
