<svg width="60" height="28" viewBox="0 0 60 28" fill="none" xmlns="http://www.w3.org/2000/svg">
<circle cx="2" cy="26" r="2" transform="rotate(-90 2 26)" fill="#959595" fill-opacity="0.6"/>
<circle cx="34" cy="26" r="2" transform="rotate(-90 34 26)" fill="#959595" fill-opacity="0.6"/>
<circle cx="10" cy="26" r="2" transform="rotate(-90 10 26)" fill="#959595" fill-opacity="0.6"/>
<circle cx="42" cy="26" r="2" transform="rotate(-90 42 26)" fill="#959595" fill-opacity="0.6"/>
<circle cx="18" cy="26" r="2" transform="rotate(-90 18 26)" fill="#959595" fill-opacity="0.6"/>
<circle cx="50" cy="26" r="2" transform="rotate(-90 50 26)" fill="#959595" fill-opacity="0.6"/>
<circle cx="26" cy="26" r="2" transform="rotate(-90 26 26)" fill="#959595" fill-opacity="0.6"/>
<circle cx="58" cy="26" r="2" transform="rotate(-90 58 26)" fill="#959595" fill-opacity="0.6"/>
<circle cx="2" cy="18" r="2" transform="rotate(-90 2 18)" fill="#959595" fill-opacity="0.6"/>
<circle cx="34" cy="18" r="2" transform="rotate(-90 34 18)" fill="#959595" fill-opacity="0.6"/>
<circle cx="10" cy="18" r="2" transform="rotate(-90 10 18)" fill="#959595" fill-opacity="0.6"/>
<circle cx="42" cy="18" r="2" transform="rotate(-90 42 18)" fill="#959595" fill-opacity="0.6"/>
<circle cx="18" cy="18" r="2" transform="rotate(-90 18 18)" fill="#959595" fill-opacity="0.6"/>
<circle cx="50" cy="18" r="2" transform="rotate(-90 50 18)" fill="#959595" fill-opacity="0.6"/>
<circle cx="26" cy="18" r="2" transform="rotate(-90 26 18)" fill="#959595" fill-opacity="0.6"/>
<circle cx="58" cy="18" r="2" transform="rotate(-90 58 18)" fill="#959595" fill-opacity="0.6"/>
<circle cx="2" cy="10" r="2" transform="rotate(-90 2 10)" fill="#959595" fill-opacity="0.6"/>
<circle cx="34" cy="10" r="2" transform="rotate(-90 34 10)" fill="#959595" fill-opacity="0.6"/>
<circle cx="10" cy="10" r="2" transform="rotate(-90 10 10)" fill="#959595" fill-opacity="0.6"/>
<circle cx="42" cy="10" r="2" transform="rotate(-90 42 10)" fill="#959595" fill-opacity="0.6"/>
<circle cx="18" cy="10" r="2" transform="rotate(-90 18 10)" fill="#959595" fill-opacity="0.6"/>
<circle cx="50" cy="10" r="2" transform="rotate(-90 50 10)" fill="#959595" fill-opacity="0.6"/>
<circle cx="26" cy="10" r="2" transform="rotate(-90 26 10)" fill="#959595" fill-opacity="0.6"/>
<circle cx="58" cy="10" r="2" transform="rotate(-90 58 10)" fill="#959595" fill-opacity="0.6"/>
<circle cx="2" cy="2" r="2" transform="rotate(-90 2 2)" fill="#959595" fill-opacity="0.6"/>
<circle cx="34" cy="2" r="2" transform="rotate(-90 34 2)" fill="#959595" fill-opacity="0.6"/>
<circle cx="10" cy="2" r="2" transform="rotate(-90 10 2)" fill="#959595" fill-opacity="0.6"/>
<circle cx="42" cy="2" r="2" transform="rotate(-90 42 2)" fill="#959595" fill-opacity="0.6"/>
<circle cx="18" cy="2" r="2" transform="rotate(-90 18 2)" fill="#959595" fill-opacity="0.6"/>
<circle cx="50" cy="2" r="2" transform="rotate(-90 50 2)" fill="#959595" fill-opacity="0.6"/>
<circle cx="26" cy="2" r="2" transform="rotate(-90 26 2)" fill="#959595" fill-opacity="0.6"/>
<circle cx="58" cy="2" r="2" transform="rotate(-90 58 2)" fill="#959595" fill-opacity="0.6"/>
</svg>
