<svg width="399" height="290" viewBox="0 0 399 290" fill="none" xmlns="http://www.w3.org/2000/svg">
<g clip-path="url(#clip0_6_371)">
<path d="M232.417 51.1236C239.895 51.1236 245.957 45.0656 245.957 37.5926C245.957 30.1197 239.895 24.0616 232.417 24.0616C224.939 24.0616 218.877 30.1197 218.877 37.5926C218.877 45.0656 224.939 51.1236 232.417 51.1236Z" fill="#F2F2F2"/>
<path d="M337.451 251.939C357.577 236.62 367.19 210.878 361.172 186.322C361.022 185.712 360.865 185.103 360.698 184.496C356.709 169.919 346.838 156.066 332.453 151.408C320.374 147.498 307.189 150.505 294.588 148.95C269.85 145.897 250.672 125.895 237.178 104.953C223.683 84.0105 213.312 60.5687 195.381 43.2673C165.825 14.749 117.611 8.60894 80.965 27.1723C44.3193 45.7356 20.9763 86.92 21.9718 127.965C22.9674 169.011 47.3505 208.253 82.7609 229.074C95.7693 236.722 110.815 242.141 125.788 240.245C138.78 238.599 150.585 231.623 163.516 229.552C183.846 226.296 204.047 235.482 221.631 246.186C239.215 256.89 256.201 269.578 276.183 274.541C295.585 279.359 319.623 265.509 337.451 251.939Z" fill="#F2F2F2"/>
<path d="M308.536 28.0342C308.094 27.7403 307.648 27.4616 307.207 27.1778C294.454 19.0269 280.784 12.4051 266.481 7.44944L263.165 53.1697H242.14V0.775349C240.817 0.501696 239.483 0.243247 238.149 0V53.1697H213.164C199.41 53.1697 186.219 47.7094 176.493 37.99C166.767 28.2706 161.303 15.0883 161.303 1.34299C159.964 1.63184 158.635 1.94092 157.307 2.27032V53.1698H136.957L133.797 9.57279C119.099 15.2061 105.145 22.6143 92.2453 31.6323C92.0222 31.7843 91.7991 31.9414 91.581 32.0934C90.4603 32.8789 89.3548 33.6796 88.2544 34.4904V208.914H148.23L147.17 194.243L141.338 113.693H258.778L252.947 194.243L251.887 208.914H311.198V29.7978C310.315 29.1998 309.428 28.612 308.536 28.0342ZM157.307 100.39H140.375L137.246 57.1631H157.307V100.39ZM238.149 100.39H209.711V99.5336C209.711 99.1219 209.63 98.7143 209.472 98.334C209.314 97.9537 209.083 97.6082 208.791 97.3173C208.5 97.0264 208.154 96.7958 207.773 96.6387C207.392 96.4817 206.984 96.4012 206.572 96.4018H194.209C193.797 96.4017 193.39 96.4826 193.009 96.6399C192.629 96.7972 192.284 97.0279 191.992 97.3188C191.701 97.6096 191.471 97.9549 191.313 98.335C191.156 98.715 191.075 99.1223 191.075 99.5336V100.39H161.303V57.1631H238.149V100.39ZM242.14 100.39V57.1631H262.876L259.747 100.39H242.14Z" fill="#3F3D56"/>
<path d="M0 220.083C4.40535 225.3 9.17023 230.202 14.2598 234.754L384.74 235.261C389.83 230.709 394.595 225.806 399 220.59L0 220.083Z" fill="#3F3D56"/>
<path d="M251.235 173.106V216.538C251.235 217.092 251.455 217.622 251.847 218.014C252.239 218.405 252.77 218.625 253.324 218.626H317.728C318.282 218.625 318.813 218.405 319.205 218.014C319.596 217.622 319.816 217.092 319.817 216.538V173.106C319.816 172.553 319.595 172.024 319.204 171.633C318.812 171.242 318.281 171.022 317.728 171.021H253.324C252.77 171.022 252.24 171.242 251.848 171.633C251.457 172.024 251.236 172.553 251.235 173.106Z" fill="#3F3D56"/>
<path d="M252.746 173.647V216.002C252.746 216.298 252.864 216.582 253.073 216.791C253.282 217 253.566 217.118 253.862 217.118H317.192C317.488 217.118 317.772 217 317.981 216.791C318.19 216.582 318.308 216.298 318.308 216.002V173.647C318.308 173.351 318.191 173.067 317.981 172.857C317.772 172.648 317.488 172.53 317.192 172.529H253.862C253.566 172.53 253.282 172.648 253.072 172.857C252.863 173.067 252.746 173.351 252.746 173.647Z" fill="#F0A400"/>
<path d="M249.888 225.009C250.006 225.156 250.156 225.276 250.327 225.357C250.497 225.439 250.684 225.481 250.873 225.48H319.836C320.024 225.48 320.21 225.437 320.381 225.356C320.551 225.275 320.701 225.157 320.82 225.011C320.938 224.864 321.023 224.693 321.067 224.51C321.112 224.327 321.115 224.136 321.076 223.952L320.005 218.87C319.961 218.663 319.866 218.47 319.728 218.309C319.59 218.148 319.413 218.024 319.215 217.949C319.072 217.893 318.919 217.864 318.765 217.864H251.94C251.786 217.864 251.633 217.893 251.489 217.949C251.291 218.024 251.115 218.148 250.977 218.309C250.839 218.47 250.744 218.663 250.699 218.87L249.629 223.952C249.591 224.136 249.594 224.326 249.639 224.509C249.684 224.692 249.769 224.863 249.888 225.009Z" fill="#2F2E41"/>
<path d="M316.399 220.052H318.028C318.164 220.052 318.275 219.942 318.275 219.805V219.026C318.275 218.89 318.164 218.779 318.028 218.779H316.399C316.262 218.779 316.151 218.89 316.151 219.026V219.805C316.151 219.942 316.262 220.052 316.399 220.052Z" fill="#3F3D56"/>
<path d="M312.151 220.052H313.78C313.916 220.052 314.027 219.942 314.027 219.805V219.026C314.027 218.89 313.916 218.779 313.78 218.779H312.151C312.014 218.779 311.903 218.89 311.903 219.026V219.805C311.903 219.942 312.014 220.052 312.151 220.052Z" fill="#3F3D56"/>
<path d="M307.903 220.052H309.532C309.668 220.052 309.779 219.942 309.779 219.805V219.026C309.779 218.89 309.668 218.779 309.532 218.779H307.903C307.766 218.779 307.655 218.89 307.655 219.026V219.805C307.655 219.942 307.766 220.052 307.903 220.052Z" fill="#3F3D56"/>
<path d="M303.655 220.052H305.284C305.42 220.052 305.531 219.942 305.531 219.805V219.026C305.531 218.89 305.42 218.779 305.284 218.779H303.655C303.518 218.779 303.407 218.89 303.407 219.026V219.805C303.407 219.942 303.518 220.052 303.655 220.052Z" fill="#3F3D56"/>
<path d="M299.407 220.052H301.036C301.172 220.052 301.283 219.942 301.283 219.805V219.026C301.283 218.89 301.172 218.779 301.036 218.779H299.407C299.27 218.779 299.159 218.89 299.159 219.026V219.805C299.159 219.942 299.27 220.052 299.407 220.052Z" fill="#3F3D56"/>
<path d="M295.159 220.052H296.788C296.924 220.052 297.035 219.942 297.035 219.805V219.026C297.035 218.89 296.924 218.779 296.788 218.779H295.159C295.022 218.779 294.911 218.89 294.911 219.026V219.805C294.911 219.942 295.022 220.052 295.159 220.052Z" fill="#3F3D56"/>
<path d="M290.911 220.052H292.54C292.676 220.052 292.787 219.942 292.787 219.805V219.026C292.787 218.89 292.676 218.779 292.54 218.779H290.911C290.774 218.779 290.663 218.89 290.663 219.026V219.805C290.663 219.942 290.774 220.052 290.911 220.052Z" fill="#3F3D56"/>
<path d="M286.663 220.052H288.292C288.428 220.052 288.539 219.942 288.539 219.805V219.026C288.539 218.89 288.428 218.779 288.292 218.779H286.663C286.526 218.779 286.415 218.89 286.415 219.026V219.805C286.415 219.942 286.526 220.052 286.663 220.052Z" fill="#3F3D56"/>
<path d="M282.415 220.052H284.044C284.18 220.052 284.291 219.942 284.291 219.805V219.026C284.291 218.89 284.18 218.779 284.044 218.779H282.415C282.278 218.779 282.167 218.89 282.167 219.026V219.805C282.167 219.942 282.278 220.052 282.415 220.052Z" fill="#3F3D56"/>
<path d="M278.167 220.052H279.796C279.932 220.052 280.043 219.942 280.043 219.805V219.026C280.043 218.89 279.932 218.779 279.796 218.779H278.167C278.03 218.779 277.919 218.89 277.919 219.026V219.805C277.919 219.942 278.03 220.052 278.167 220.052Z" fill="#3F3D56"/>
<path d="M273.919 220.052H275.548C275.684 220.052 275.795 219.942 275.795 219.805V219.026C275.795 218.89 275.684 218.779 275.548 218.779H273.919C273.782 218.779 273.671 218.89 273.671 219.026V219.805C273.671 219.942 273.782 220.052 273.919 220.052Z" fill="#3F3D56"/>
<path d="M269.671 220.052H271.3C271.436 220.052 271.547 219.942 271.547 219.805V219.026C271.547 218.89 271.436 218.779 271.3 218.779H269.671C269.534 218.779 269.423 218.89 269.423 219.026V219.805C269.423 219.942 269.534 220.052 269.671 220.052Z" fill="#3F3D56"/>
<path d="M265.423 220.052H267.051C267.188 220.052 267.299 219.942 267.299 219.805V219.026C267.299 218.89 267.188 218.779 267.051 218.779H265.423C265.286 218.779 265.175 218.89 265.175 219.026V219.805C265.175 219.942 265.286 220.052 265.423 220.052Z" fill="#3F3D56"/>
<path d="M261.175 220.052H262.804C262.94 220.052 263.051 219.942 263.051 219.805V219.026C263.051 218.89 262.94 218.779 262.804 218.779H261.175C261.038 218.779 260.927 218.89 260.927 219.026V219.805C260.927 219.942 261.038 220.052 261.175 220.052Z" fill="#3F3D56"/>
<path d="M256.927 220.052H258.556C258.692 220.052 258.803 219.942 258.803 219.805V219.026C258.803 218.89 258.692 218.779 258.556 218.779H256.927C256.79 218.779 256.679 218.89 256.679 219.026V219.805C256.679 219.942 256.79 220.052 256.927 220.052Z" fill="#3F3D56"/>
<path d="M252.679 220.052H254.308C254.444 220.052 254.555 219.942 254.555 219.805V219.026C254.555 218.89 254.444 218.779 254.308 218.779H252.679C252.542 218.779 252.431 218.89 252.431 219.026V219.805C252.431 219.942 252.542 220.052 252.679 220.052Z" fill="#3F3D56"/>
<path d="M316.449 222.175H318.078C318.215 222.175 318.325 222.065 318.325 221.928V221.149C318.325 221.013 318.215 220.902 318.078 220.902H316.449C316.312 220.902 316.201 221.013 316.201 221.149V221.928C316.201 222.065 316.312 222.175 316.449 222.175Z" fill="#3F3D56"/>
<path d="M312.201 222.175H313.83C313.967 222.175 314.077 222.065 314.077 221.928V221.149C314.077 221.013 313.967 220.902 313.83 220.902H312.201C312.064 220.902 311.953 221.013 311.953 221.149V221.928C311.953 222.065 312.064 222.175 312.201 222.175Z" fill="#3F3D56"/>
<path d="M307.953 222.175H309.582C309.718 222.175 309.829 222.065 309.829 221.928V221.149C309.829 221.013 309.718 220.902 309.582 220.902H307.953C307.816 220.902 307.705 221.013 307.705 221.149V221.928C307.705 222.065 307.816 222.175 307.953 222.175Z" fill="#3F3D56"/>
<path d="M303.705 222.175H305.334C305.47 222.175 305.581 222.065 305.581 221.928V221.149C305.581 221.013 305.47 220.902 305.334 220.902H303.705C303.568 220.902 303.457 221.013 303.457 221.149V221.928C303.457 222.065 303.568 222.175 303.705 222.175Z" fill="#3F3D56"/>
<path d="M299.457 222.175H301.086C301.222 222.175 301.333 222.065 301.333 221.928V221.149C301.333 221.013 301.222 220.902 301.086 220.902H299.457C299.32 220.902 299.209 221.013 299.209 221.149V221.928C299.209 222.065 299.32 222.175 299.457 222.175Z" fill="#3F3D56"/>
<path d="M295.209 222.175H296.838C296.975 222.175 297.085 222.065 297.085 221.928V221.149C297.085 221.013 296.975 220.902 296.838 220.902H295.209C295.072 220.902 294.961 221.013 294.961 221.149V221.928C294.961 222.065 295.072 222.175 295.209 222.175Z" fill="#3F3D56"/>
<path d="M290.961 222.175H292.59C292.727 222.175 292.837 222.065 292.837 221.928V221.149C292.837 221.013 292.727 220.902 292.59 220.902H290.961C290.824 220.902 290.713 221.013 290.713 221.149V221.928C290.713 222.065 290.824 222.175 290.961 222.175Z" fill="#3F3D56"/>
<path d="M286.713 222.175H288.342C288.479 222.175 288.589 222.065 288.589 221.928V221.149C288.589 221.013 288.479 220.902 288.342 220.902H286.713C286.576 220.902 286.465 221.013 286.465 221.149V221.928C286.465 222.065 286.576 222.175 286.713 222.175Z" fill="#3F3D56"/>
<path d="M282.465 222.175H284.094C284.23 222.175 284.341 222.065 284.341 221.928V221.149C284.341 221.013 284.23 220.902 284.094 220.902H282.465C282.328 220.902 282.217 221.013 282.217 221.149V221.928C282.217 222.065 282.328 222.175 282.465 222.175Z" fill="#3F3D56"/>
<path d="M278.217 222.175H279.846C279.983 222.175 280.093 222.065 280.093 221.928V221.149C280.093 221.013 279.983 220.902 279.846 220.902H278.217C278.08 220.902 277.969 221.013 277.969 221.149V221.928C277.969 222.065 278.08 222.175 278.217 222.175Z" fill="#3F3D56"/>
<path d="M273.969 222.175H275.598C275.735 222.175 275.845 222.065 275.845 221.928V221.149C275.845 221.013 275.735 220.902 275.598 220.902H273.969C273.832 220.902 273.721 221.013 273.721 221.149V221.928C273.721 222.065 273.832 222.175 273.969 222.175Z" fill="#3F3D56"/>
<path d="M269.721 222.175H271.35C271.487 222.175 271.597 222.065 271.597 221.928V221.149C271.597 221.013 271.487 220.902 271.35 220.902H269.721C269.584 220.902 269.473 221.013 269.473 221.149V221.928C269.473 222.065 269.584 222.175 269.721 222.175Z" fill="#3F3D56"/>
<path d="M265.473 222.175H267.102C267.239 222.175 267.349 222.065 267.349 221.928V221.149C267.349 221.013 267.239 220.902 267.102 220.902H265.473C265.336 220.902 265.225 221.013 265.225 221.149V221.928C265.225 222.065 265.336 222.175 265.473 222.175Z" fill="#3F3D56"/>
<path d="M261.225 222.175H262.854C262.99 222.175 263.101 222.065 263.101 221.928V221.149C263.101 221.013 262.99 220.902 262.854 220.902H261.225C261.088 220.902 260.977 221.013 260.977 221.149V221.928C260.977 222.065 261.088 222.175 261.225 222.175Z" fill="#3F3D56"/>
<path d="M256.977 222.175H258.606C258.742 222.175 258.853 222.065 258.853 221.928V221.149C258.853 221.013 258.742 220.902 258.606 220.902H256.977C256.84 220.902 256.729 221.013 256.729 221.149V221.928C256.729 222.065 256.84 222.175 256.977 222.175Z" fill="#3F3D56"/>
<path d="M252.729 222.175H254.358C254.494 222.175 254.605 222.065 254.605 221.928V221.149C254.605 221.013 254.494 220.902 254.358 220.902H252.729C252.592 220.902 252.481 221.013 252.481 221.149V221.928C252.481 222.065 252.592 222.175 252.729 222.175Z" fill="#3F3D56"/>
<path d="M281.19 224.722H297.687C297.824 224.722 297.935 224.611 297.935 224.475V223.696C297.935 223.559 297.824 223.449 297.687 223.449H281.19C281.054 223.449 280.943 223.559 280.943 223.696V224.475C280.943 224.611 281.054 224.722 281.19 224.722Z" fill="#3F3D56"/>
<path d="M263.713 181.795H262.271C261.833 181.795 261.479 182.149 261.479 182.586C261.479 183.023 261.833 183.377 262.271 183.377H263.713C264.15 183.377 264.504 183.023 264.504 182.586C264.504 182.149 264.15 181.795 263.713 181.795Z" fill="white"/>
<path d="M280.205 181.795H278.763C278.326 181.795 277.971 182.149 277.971 182.586C277.971 183.023 278.326 183.377 278.763 183.377H280.205C280.642 183.377 280.997 183.023 280.997 182.586C280.997 182.149 280.642 181.795 280.205 181.795Z" fill="white"/>
<path d="M284.878 181.795H283.436C282.999 181.795 282.644 182.149 282.644 182.586C282.644 183.023 282.999 183.377 283.436 183.377H284.878C285.315 183.377 285.67 183.023 285.67 182.586C285.67 182.149 285.315 181.795 284.878 181.795Z" fill="white"/>
<path d="M275.719 181.663H266.756C266.319 181.663 265.965 182.018 265.965 182.454C265.965 182.891 266.319 183.246 266.756 183.246H275.719C276.156 183.246 276.511 182.891 276.511 182.454C276.511 182.018 276.156 181.663 275.719 181.663Z" fill="white"/>
<path d="M297.709 181.663H288.747C288.309 181.663 287.955 182.018 287.955 182.454C287.955 182.891 288.309 183.246 288.747 183.246H297.709C298.146 183.246 298.501 182.891 298.501 182.454C298.501 182.018 298.146 181.663 297.709 181.663Z" fill="white"/>
<path d="M268.111 185.366H266.669C266.231 185.366 265.877 185.72 265.877 186.157C265.877 186.594 266.231 186.948 266.669 186.948H268.111C268.548 186.948 268.902 186.594 268.902 186.157C268.902 185.72 268.548 185.366 268.111 185.366Z" fill="white"/>
<path d="M284.603 185.366H283.161C282.724 185.366 282.369 185.72 282.369 186.157C282.369 186.594 282.724 186.948 283.161 186.948H284.603C285.04 186.948 285.395 186.594 285.395 186.157C285.395 185.72 285.04 185.366 284.603 185.366Z" fill="white"/>
<path d="M289.276 185.366H287.834C287.397 185.366 287.042 185.72 287.042 186.157C287.042 186.594 287.397 186.948 287.834 186.948H289.276C289.713 186.948 290.068 186.594 290.068 186.157C290.068 185.72 289.713 185.366 289.276 185.366Z" fill="white"/>
<path d="M280.117 185.234H271.155C270.717 185.234 270.363 185.589 270.363 186.025C270.363 186.462 270.717 186.817 271.155 186.817H280.117C280.554 186.817 280.909 186.462 280.909 186.025C280.909 185.589 280.554 185.234 280.117 185.234Z" fill="white"/>
<path d="M302.107 185.234H293.145C292.707 185.234 292.353 185.589 292.353 186.025C292.353 186.462 292.707 186.817 293.145 186.817H302.107C302.544 186.817 302.899 186.462 302.899 186.025C302.899 185.589 302.544 185.234 302.107 185.234Z" fill="white"/>
<path d="M272.509 188.937H271.067C270.629 188.937 270.275 189.291 270.275 189.728C270.275 190.165 270.629 190.519 271.067 190.519H272.509C272.946 190.519 273.3 190.165 273.3 189.728C273.3 189.291 272.946 188.937 272.509 188.937Z" fill="white"/>
<path d="M289.001 188.937H287.559C287.122 188.937 286.767 189.291 286.767 189.728C286.767 190.165 287.122 190.519 287.559 190.519H289.001C289.438 190.519 289.793 190.165 289.793 189.728C289.793 189.291 289.438 188.937 289.001 188.937Z" fill="white"/>
<path d="M293.674 188.937H292.232C291.795 188.937 291.44 189.291 291.44 189.728C291.44 190.165 291.795 190.519 292.232 190.519H293.674C294.111 190.519 294.466 190.165 294.466 189.728C294.466 189.291 294.111 188.937 293.674 188.937Z" fill="white"/>
<path d="M284.515 188.805H275.553C275.115 188.805 274.761 189.16 274.761 189.597C274.761 190.033 275.115 190.388 275.553 190.388H284.515C284.952 190.388 285.307 190.033 285.307 189.597C285.307 189.16 284.952 188.805 284.515 188.805Z" fill="white"/>
<path d="M306.505 188.805H297.543C297.105 188.805 296.751 189.16 296.751 189.597C296.751 190.033 297.105 190.388 297.543 190.388H306.505C306.942 190.388 307.297 190.033 307.297 189.597C307.297 189.16 306.942 188.805 306.505 188.805Z" fill="white"/>
<path d="M276.907 192.508H275.465C275.027 192.508 274.673 192.862 274.673 193.299C274.673 193.736 275.027 194.09 275.465 194.09H276.907C277.344 194.09 277.698 193.736 277.698 193.299C277.698 192.862 277.344 192.508 276.907 192.508Z" fill="white"/>
<path d="M293.399 192.508H291.957C291.52 192.508 291.166 192.862 291.166 193.299C291.166 193.736 291.52 194.09 291.957 194.09H293.399C293.836 194.09 294.191 193.736 294.191 193.299C294.191 192.862 293.836 192.508 293.399 192.508Z" fill="white"/>
<path d="M298.072 192.508H296.63C296.193 192.508 295.838 192.862 295.838 193.299C295.838 193.736 296.193 194.09 296.63 194.09H298.072C298.509 194.09 298.864 193.736 298.864 193.299C298.864 192.862 298.509 192.508 298.072 192.508Z" fill="white"/>
<path d="M288.913 192.376H279.951C279.513 192.376 279.159 192.731 279.159 193.167C279.159 193.604 279.513 193.959 279.951 193.959H288.913C289.35 193.959 289.705 193.604 289.705 193.167C289.705 192.731 289.35 192.376 288.913 192.376Z" fill="white"/>
<path d="M280.205 206.708H278.763C278.326 206.708 277.971 207.062 277.971 207.499C277.971 207.936 278.326 208.29 278.763 208.29H280.205C280.642 208.29 280.997 207.936 280.997 207.499C280.997 207.062 280.642 206.708 280.205 206.708Z" fill="white"/>
<path d="M284.878 206.708H283.436C282.999 206.708 282.644 207.062 282.644 207.499C282.644 207.936 282.999 208.29 283.436 208.29H284.878C285.315 208.29 285.67 207.936 285.67 207.499C285.67 207.062 285.315 206.708 284.878 206.708Z" fill="white"/>
<path d="M297.709 206.84H288.747C288.309 206.84 287.955 207.194 287.955 207.631C287.955 208.068 288.309 208.422 288.747 208.422H297.709C298.146 208.422 298.501 208.068 298.501 207.631C298.501 207.194 298.146 206.84 297.709 206.84Z" fill="white"/>
<path d="M263.713 206.708H262.271C261.833 206.708 261.479 207.062 261.479 207.499C261.479 207.936 261.833 208.29 262.271 208.29H263.713C264.15 208.29 264.504 207.936 264.504 207.499C264.504 207.062 264.15 206.708 263.713 206.708Z" fill="white"/>
<path d="M275.719 206.84H266.756C266.319 206.84 265.965 207.194 265.965 207.631C265.965 208.068 266.319 208.422 266.756 208.422H275.719C276.156 208.422 276.511 208.068 276.511 207.631C276.511 207.194 276.156 206.84 275.719 206.84Z" fill="white"/>
<path d="M268.111 203.137H266.669C266.231 203.137 265.877 203.491 265.877 203.928C265.877 204.365 266.231 204.719 266.669 204.719H268.111C268.548 204.719 268.902 204.365 268.902 203.928C268.902 203.491 268.548 203.137 268.111 203.137Z" fill="white"/>
<path d="M284.603 203.137H283.161C282.724 203.137 282.369 203.491 282.369 203.928C282.369 204.365 282.724 204.719 283.161 204.719H284.603C285.04 204.719 285.395 204.365 285.395 203.928C285.395 203.491 285.04 203.137 284.603 203.137Z" fill="white"/>
<path d="M289.276 203.137H287.834C287.397 203.137 287.042 203.491 287.042 203.928C287.042 204.365 287.397 204.719 287.834 204.719H289.276C289.713 204.719 290.068 204.365 290.068 203.928C290.068 203.491 289.713 203.137 289.276 203.137Z" fill="white"/>
<path d="M280.117 203.269H271.155C270.717 203.269 270.363 203.623 270.363 204.06C270.363 204.497 270.717 204.851 271.155 204.851H280.117C280.554 204.851 280.909 204.497 280.909 204.06C280.909 203.623 280.554 203.269 280.117 203.269Z" fill="white"/>
<path d="M272.509 199.566H271.067C270.629 199.566 270.275 199.92 270.275 200.357C270.275 200.794 270.629 201.148 271.067 201.148H272.509C272.946 201.148 273.3 200.794 273.3 200.357C273.3 199.92 272.946 199.566 272.509 199.566Z" fill="white"/>
<path d="M289.001 199.566H287.559C287.122 199.566 286.767 199.92 286.767 200.357C286.767 200.794 287.122 201.148 287.559 201.148H289.001C289.438 201.148 289.793 200.794 289.793 200.357C289.793 199.92 289.438 199.566 289.001 199.566Z" fill="white"/>
<path d="M293.674 199.566H292.232C291.795 199.566 291.44 199.92 291.44 200.357C291.44 200.794 291.795 201.148 292.232 201.148H293.674C294.111 201.148 294.466 200.794 294.466 200.357C294.466 199.92 294.111 199.566 293.674 199.566Z" fill="white"/>
<path d="M284.515 199.698H275.553C275.115 199.698 274.761 200.052 274.761 200.489C274.761 200.926 275.115 201.28 275.553 201.28H284.515C284.952 201.28 285.307 200.926 285.307 200.489C285.307 200.052 284.952 199.698 284.515 199.698Z" fill="white"/>
<path d="M276.907 195.995H275.465C275.027 195.995 274.673 196.349 274.673 196.786C274.673 197.223 275.027 197.577 275.465 197.577H276.907C277.344 197.577 277.698 197.223 277.698 196.786C277.698 196.349 277.344 195.995 276.907 195.995Z" fill="white"/>
<path d="M293.399 195.995H291.957C291.52 195.995 291.166 196.349 291.166 196.786C291.166 197.223 291.52 197.577 291.957 197.577H293.399C293.836 197.577 294.191 197.223 294.191 196.786C294.191 196.349 293.836 195.995 293.399 195.995Z" fill="white"/>
<path d="M298.072 195.995H296.63C296.193 195.995 295.838 196.349 295.838 196.786C295.838 197.223 296.193 197.577 296.63 197.577H298.072C298.509 197.577 298.864 197.223 298.864 196.786C298.864 196.349 298.509 195.995 298.072 195.995Z" fill="white"/>
<path d="M288.913 196.127H279.951C279.513 196.127 279.159 196.481 279.159 196.918C279.159 197.355 279.513 197.709 279.951 197.709H288.913C289.35 197.709 289.705 197.355 289.705 196.918C289.705 196.481 289.35 196.127 288.913 196.127Z" fill="white"/>
<path d="M256.046 248.559L249.276 237.865L270.525 220.938L279.295 211.228C280.435 209.966 281.886 209.026 283.503 208.5C285.12 207.974 286.847 207.882 288.511 208.232C290.175 208.582 291.718 209.363 292.986 210.496C294.253 211.629 295.201 213.074 295.735 214.688C296.525 217.079 296.355 219.684 295.261 221.952C294.166 224.22 292.232 225.975 289.868 226.846L275.999 231.951L256.046 248.559Z" fill="#FFB6B6"/>
<path d="M97.2069 171.023V222.997H133.642V171.023C133.643 170.65 133.524 170.285 133.302 169.984C133.08 169.683 132.767 169.461 132.41 169.351C132.242 169.295 132.065 169.268 131.888 169.27H98.9666C98.7358 169.27 98.5072 169.315 98.2938 169.402C98.0804 169.49 97.8865 169.619 97.7231 169.782C97.5597 169.945 97.43 170.139 97.3414 170.351C97.2528 170.564 97.2071 170.793 97.2069 171.023ZM111.426 188.882C111.436 187.857 111.85 186.878 112.578 186.157C113.306 185.435 114.29 185.031 115.316 185.031C116.341 185.031 117.325 185.435 118.053 186.157C118.782 186.878 119.196 187.857 119.205 188.882V194.912C119.2 195.94 118.788 196.923 118.059 197.648C117.33 198.373 116.344 198.779 115.316 198.779C114.287 198.779 113.301 198.373 112.572 197.648C111.843 196.923 111.431 195.94 111.426 194.912V188.882Z" fill="#2F2E41"/>
<path d="M97.0953 221.335V226.347C97.0962 226.606 97.1994 226.855 97.3826 227.039C97.5658 227.223 97.8143 227.328 98.074 227.33H132.775C133.035 227.329 133.284 227.225 133.468 227.04C133.651 226.856 133.754 226.607 133.754 226.347V221.335H97.0953Z" fill="#3F3D56"/>
<path d="M39.8888 92.7182V187.615C39.8898 188.824 40.3709 189.984 41.2266 190.839C42.0823 191.694 43.2426 192.175 44.4527 192.176H185.174C186.384 192.175 187.545 191.694 188.4 190.839C189.256 189.984 189.737 188.824 189.738 187.615V92.7182C189.735 91.5099 189.253 90.352 188.398 89.4981C187.543 88.6442 186.383 88.1639 185.174 88.1624H44.4527C43.2437 88.1639 42.0845 88.6442 41.229 89.4981C40.3736 90.352 39.8917 91.5099 39.8888 92.7182Z" fill="#3F3D56"/>
<path d="M43.1901 93.8988V186.444C43.1912 187.09 43.4485 187.71 43.9057 188.167C44.3629 188.623 44.9827 188.881 45.6292 188.882H184.003C184.649 188.881 185.269 188.623 185.726 188.167C186.184 187.71 186.441 187.09 186.442 186.444V93.8988C186.442 93.2519 186.185 92.6314 185.728 92.1735C185.271 91.7156 184.65 91.4576 184.003 91.4562H45.6292C44.9819 91.4576 44.3615 91.7156 43.9042 92.1735C43.447 92.6314 43.1901 93.2519 43.1901 93.8988Z" fill="white"/>
<path d="M68.8699 226.99C69.0107 227.167 69.1898 227.309 69.3935 227.407C69.5973 227.504 69.8205 227.554 70.0464 227.553H152.37C152.595 227.553 152.817 227.502 153.02 227.405C153.223 227.308 153.403 227.168 153.544 226.993C153.686 226.818 153.787 226.614 153.84 226.395C153.893 226.177 153.897 225.949 153.85 225.729L152.573 219.663C152.52 219.415 152.406 219.185 152.241 218.993C152.076 218.801 151.866 218.653 151.629 218.563C151.458 218.496 151.276 218.461 151.092 218.462H71.3192C71.1353 218.461 70.9529 218.496 70.7817 218.563C70.5452 218.653 70.3349 218.801 70.1702 218.993C70.0055 219.185 69.8914 219.415 69.8385 219.663L68.5606 225.729C68.5151 225.949 68.5193 226.176 68.5728 226.394C68.6263 226.613 68.7278 226.816 68.8699 226.99Z" fill="#2F2E41"/>
<path d="M179.512 104.205H50.0365C49.902 104.202 49.7739 104.146 49.6798 104.05C49.5857 103.954 49.533 103.825 49.533 103.69C49.533 103.556 49.5857 103.427 49.6798 103.33C49.7739 103.234 49.902 103.179 50.0365 103.176H179.512C179.647 103.179 179.775 103.234 179.869 103.33C179.963 103.427 180.016 103.556 180.016 103.69C180.016 103.825 179.963 103.954 179.869 104.05C179.775 104.146 179.647 104.202 179.512 104.205Z" fill="#3F3D56"/>
<path d="M58.8501 100.549C60.5166 100.549 61.8676 99.1684 61.8676 97.4658C61.8676 95.7633 60.5166 94.3832 58.8501 94.3832C57.1836 94.3832 55.8326 95.7633 55.8326 97.4658C55.8326 99.1684 57.1836 100.549 58.8501 100.549Z" fill="#3F3D56"/>
<path d="M69.2742 100.549C70.9407 100.549 72.2917 99.1684 72.2917 97.4658C72.2917 95.7633 70.9407 94.3832 69.2742 94.3832C67.6077 94.3832 66.2567 95.7633 66.2567 97.4658C66.2567 99.1684 67.6077 100.549 69.2742 100.549Z" fill="#3F3D56"/>
<path d="M79.6983 100.549C81.3648 100.549 82.7158 99.1684 82.7158 97.4658C82.7158 95.7633 81.3648 94.3832 79.6983 94.3832C78.0318 94.3832 76.6808 95.7633 76.6808 97.4658C76.6808 99.1684 78.0318 100.549 79.6983 100.549Z" fill="#3F3D56"/>
<path d="M173.235 95.1455H165.832C165.685 95.1489 165.546 95.2094 165.444 95.314C165.341 95.4187 165.284 95.5592 165.284 95.7055C165.284 95.8518 165.341 95.9923 165.444 96.0969C165.546 96.2016 165.685 96.262 165.832 96.2655H173.235C173.382 96.2634 173.523 96.2035 173.626 96.0987C173.73 95.9939 173.788 95.8526 173.788 95.7055C173.788 95.5583 173.73 95.4171 173.626 95.3123C173.523 95.2075 173.382 95.1476 173.235 95.1455Z" fill="#3F3D56"/>
<path d="M173.235 97.2485H165.831C165.685 97.2518 165.546 97.3122 165.443 97.4169C165.341 97.5215 165.283 97.6621 165.283 97.8085C165.283 97.9549 165.341 98.0955 165.443 98.2002C165.546 98.3048 165.685 98.3652 165.831 98.3685H173.235C173.383 98.3667 173.523 98.3069 173.627 98.2021C173.731 98.0973 173.789 97.9559 173.789 97.8085C173.789 97.6612 173.731 97.5197 173.627 97.4149C173.523 97.3101 173.383 97.2503 173.235 97.2485Z" fill="#3F3D56"/>
<path d="M173.235 99.3516H165.832C165.685 99.355 165.546 99.4155 165.444 99.5201C165.341 99.6248 165.284 99.7652 165.284 99.9115C165.284 100.058 165.341 100.198 165.444 100.303C165.546 100.408 165.685 100.468 165.832 100.472H173.235C173.382 100.469 173.523 100.41 173.626 100.305C173.73 100.2 173.788 100.059 173.788 99.9115C173.788 99.7644 173.73 99.6231 173.626 99.5183C173.523 99.4135 173.382 99.3536 173.235 99.3516Z" fill="#3F3D56"/>
<path d="M351.726 223.535C351.949 224.185 352.373 224.747 352.936 225.141C353.499 225.536 354.173 225.742 354.861 225.729L368.295 225.384C368.988 225.37 369.658 225.133 370.204 224.708C370.751 224.282 371.145 223.692 371.328 223.024L373.229 202.709C373.904 203.014 374.638 203.165 375.378 203.15C376.021 203.134 376.655 202.992 377.243 202.731C377.831 202.47 378.362 202.096 378.805 201.63C379.249 201.164 379.596 200.615 379.827 200.015C380.059 199.415 380.169 198.776 380.153 198.133C380.137 197.49 379.994 196.857 379.733 196.269C379.472 195.682 379.098 195.151 378.632 194.708C378.165 194.265 377.616 193.918 377.016 193.687C376.416 193.456 375.776 193.345 375.132 193.361C374.836 193.36 374.541 193.391 374.252 193.453C373.937 193.113 373.555 192.842 373.129 192.658C372.703 192.475 372.244 192.382 371.78 192.387L351.116 192.92C350.944 192.927 350.774 192.948 350.606 192.984C350.153 193.068 349.723 193.249 349.345 193.513C348.968 193.777 348.651 194.119 348.417 194.516C348.183 194.913 348.037 195.355 347.988 195.813C347.939 196.272 347.989 196.735 348.135 197.172L351.726 223.535ZM373.619 201.33L374.972 196.489C375.126 195.929 375.129 195.34 374.982 194.779C375.048 194.778 375.106 194.747 375.171 194.747C376.099 194.728 376.996 195.077 377.666 195.718C378.337 196.359 378.725 197.24 378.747 198.166C378.769 199.093 378.422 199.991 377.782 200.663C377.143 201.334 376.263 201.725 375.335 201.749C374.736 201.768 374.142 201.623 373.619 201.33Z" fill="#2F2E41"/>
<path d="M350.606 192.984C351.046 195.499 355.996 197.268 361.948 196.96C367.421 196.708 371.896 194.788 372.715 192.512C372.412 192.422 372.097 192.38 371.78 192.387L351.115 192.92C350.944 192.927 350.773 192.948 350.606 192.984Z" fill="#3F3D56"/>
<path d="M363.038 212.371C363.066 212.364 363.091 212.353 363.115 212.338L366.032 210.429C366.068 210.406 366.097 210.375 366.117 210.338C366.137 210.301 366.147 210.26 366.147 210.218C366.147 210.175 366.137 210.134 366.117 210.097C366.097 210.06 366.068 210.029 366.033 210.006L363 208.021C362.972 208.002 362.941 207.99 362.908 207.983C362.876 207.977 362.842 207.977 362.809 207.984C362.777 207.991 362.746 208.004 362.718 208.023C362.69 208.041 362.667 208.065 362.648 208.093C362.63 208.121 362.618 208.152 362.611 208.185C362.605 208.218 362.605 208.251 362.612 208.284C362.619 208.317 362.632 208.348 362.651 208.375C362.67 208.403 362.694 208.426 362.722 208.444L365.431 210.217L362.837 211.914C362.787 211.947 362.75 211.996 362.733 212.054C362.716 212.111 362.72 212.173 362.744 212.228C362.768 212.283 362.811 212.327 362.865 212.353C362.919 212.38 362.98 212.386 363.038 212.371Z" fill="#F0A400"/>
<path d="M358.43 212.584C358.479 212.571 358.524 212.545 358.557 212.507C358.591 212.47 358.613 212.423 358.619 212.373C358.626 212.323 358.618 212.272 358.596 212.226C358.574 212.181 358.538 212.144 358.494 212.118L355.805 210.578L358.404 208.648C358.431 208.629 358.454 208.604 358.471 208.575C358.488 208.547 358.499 208.515 358.504 208.482C358.509 208.449 358.507 208.416 358.499 208.383C358.491 208.351 358.477 208.321 358.457 208.294C358.437 208.267 358.412 208.245 358.383 208.228C358.355 208.211 358.323 208.199 358.29 208.195C358.257 208.19 358.224 208.191 358.192 208.2C358.159 208.208 358.129 208.222 358.102 208.242L355.192 210.402C355.158 210.427 355.131 210.46 355.113 210.498C355.096 210.536 355.088 210.578 355.09 210.62C355.093 210.662 355.105 210.703 355.128 210.739C355.15 210.774 355.181 210.804 355.217 210.825L358.242 212.558C358.299 212.591 358.367 212.6 358.43 212.584Z" fill="#F0A400"/>
<path d="M362.748 214.044C362.773 214.038 362.796 214.028 362.818 214.014C362.846 213.997 362.871 213.974 362.891 213.947C362.91 213.921 362.925 213.89 362.932 213.858C362.94 213.825 362.942 213.792 362.937 213.759C362.932 213.726 362.92 213.695 362.903 213.666L358.767 206.871C358.732 206.814 358.676 206.773 358.61 206.757C358.545 206.741 358.476 206.752 358.419 206.787C358.361 206.822 358.32 206.878 358.304 206.943C358.288 207.009 358.299 207.078 358.334 207.135L362.469 213.93C362.498 213.976 362.54 214.012 362.59 214.033C362.64 214.053 362.696 214.057 362.748 214.044Z" fill="#F0A400"/>
<path d="M130.244 132.178H107.835C106.921 132.178 106.18 132.919 106.18 133.832V136.02C106.18 136.934 106.921 137.674 107.835 137.674H130.244C131.159 137.674 131.9 136.934 131.9 136.02V133.832C131.9 132.919 131.159 132.178 130.244 132.178Z" fill="#F0A400"/>
<path d="M143.307 143.17H94.7728C93.8586 143.17 93.1176 143.911 93.1176 144.825V147.012C93.1176 147.926 93.8586 148.667 94.7728 148.667H143.307C144.221 148.667 144.962 147.926 144.962 147.012V144.825C144.962 143.911 144.221 143.17 143.307 143.17Z" fill="#E6E6E6"/>
<path d="M143.307 154.163H94.7728C93.8586 154.163 93.1176 154.903 93.1176 155.817V158.005C93.1176 158.918 93.8586 159.659 94.7728 159.659H143.307C144.221 159.659 144.962 158.918 144.962 158.005V155.817C144.962 154.903 144.221 154.163 143.307 154.163Z" fill="#E6E6E6"/>
<path d="M147.421 190.972L147.531 191.319L147.537 191.331L150.846 201.384L154.652 212.969L161.814 234.74L161.883 238.122V238.134L162.415 265.339L160.94 269.027L162.601 275.074C162.601 275.074 161.837 265.934 157.741 271.183C155.422 274.166 152.708 277.218 150.481 280.08C153.727 281.392 157.024 282.579 160.373 283.641C161.097 283.872 161.825 284.092 162.554 284.312C162.71 284.358 162.867 284.404 163.023 284.45C174.126 287.732 185.604 289.575 197.177 289.936C197.778 289.954 198.368 289.965 198.941 289.977C199.144 289.983 199.34 289.988 199.537 289.988C200.185 289.994 200.827 290 201.475 290C202.782 290 204.084 289.981 205.38 289.942C214.971 289.672 224.506 288.383 233.824 286.098C233.76 282.253 233.587 277.762 233.338 272.963C233.222 270.611 230.625 268.061 230.469 265.598C230.359 263.748 232.69 262.008 232.569 260.13C231.782 248.562 230.799 253.002 230.07 244.811C229.994 244.007 229.925 243.238 229.861 242.504C229.393 237.243 229.069 233.954 229.069 233.954L232.181 214.351L237.069 183.572L236.693 182.954L236.271 182.746L210.488 169.993L209.088 166.409C208.68 165.376 207.972 164.489 207.056 163.862C206.139 163.234 205.056 162.895 203.945 162.888L186.961 162.819C186.079 162.815 185.21 163.021 184.424 163.42C183.638 163.819 182.959 164.4 182.443 165.114L177.844 171.479L147.421 190.972Z" fill="#3F3D56"/>
<path d="M165.73 229.896L161.883 238.122L159.257 243.741L154.739 267.38L152.477 269.779L150.539 261.286L130.256 265.786C129.591 262.092 130.078 265.911 129.667 261.859C129.783 261.743 129.904 261.628 130.026 261.512C130.35 261.211 130.622 260.928 130.616 260.656C130.385 246.678 131.079 222.889 136.875 208.477C137.783 206.124 138.98 203.893 140.439 201.835C140.554 201.679 140.664 201.522 140.774 201.366C143.447 197.626 145.136 193.944 147.531 191.325V191.319C147.546 191.307 147.559 191.293 147.571 191.279C147.58 191.274 147.588 191.268 147.595 191.261L164.047 182.543L164.753 202.361L165.256 216.605L165.73 229.896Z" fill="#3F3D56"/>
<path d="M225.054 232.232L229.859 242.507L231.536 246.085L236.053 269.721L238.307 272.115L240.25 263.624L241.162 263.437L257.622 260.03L262.42 275.256C263.501 273.456 263.927 271.338 263.626 269.259C263.324 267.181 262.314 265.271 260.766 263.851C260.438 263.555 260.165 263.267 260.173 262.994C260.446 246.553 259.44 216.532 250.352 204.176C247.466 200.254 245.734 196.349 243.214 193.62C243.206 193.613 243.206 193.605 243.199 193.605L237.067 183.572L236.693 182.956L236.271 182.745L225.054 232.232Z" fill="#3F3D56"/>
<path d="M195.943 157.988C208.423 157.988 218.539 147.879 218.539 135.408C218.539 122.937 208.423 112.827 195.943 112.827C183.464 112.827 173.348 122.937 173.348 135.408C173.348 147.879 183.464 157.988 195.943 157.988Z" fill="#FFB6B6"/>
<path d="M226.484 119.635C226.309 119.448 226.098 119.299 225.864 119.195C225.629 119.091 225.376 119.036 225.12 119.032L225.46 118.09C225.571 117.793 225.601 117.472 225.546 117.16C225.492 116.847 225.356 116.555 225.152 116.313C224.948 116.07 224.682 115.887 224.384 115.78C224.085 115.674 223.763 115.649 223.452 115.708L222.214 115.946L222.331 115.12C222.376 114.812 222.339 114.498 222.226 114.209C222.112 113.92 221.925 113.665 221.683 113.469C221.441 113.274 221.153 113.145 220.846 113.095C220.539 113.045 220.224 113.076 219.932 113.184C219.667 113.289 219.382 113.332 219.098 113.312C218.813 113.292 218.537 113.208 218.289 113.068C218.04 112.931 217.824 112.742 217.656 112.514C217.488 112.285 217.372 112.023 217.316 111.745L216.885 109.667L216.839 109.556C214.74 106.059 210.703 103.515 205.764 102.583C201.367 101.747 196.859 102.172 192.513 102.573C190.789 102.735 188.842 102.917 187.219 103.91C185.84 104.762 184.673 106.465 184.912 108.182C180.627 106.87 176.032 109.49 173.755 112.794C171.058 116.727 170.616 121.652 170.545 125.504C170.353 134.615 172.234 142.07 176.124 147.665C176.408 148.07 176.479 148.916 177.041 149.2L176.925 149.013C177.554 149.327 178.193 149.833 177.954 150.376C177.27 151.937 181.818 155.388 185.023 156.528C190.87 158.611 198.644 158.433 204.111 157.683L204.303 156.391C206.276 156.122 207.665 155.611 208.056 154.81C208.746 154.222 209.334 153.695 209.846 153.209L209.851 153.203C209.861 153.193 209.881 153.178 209.892 153.168C212.361 150.801 212.934 149.453 213.193 147.401C213.441 145.389 213 143.347 212.549 141.507C222.052 142.977 208.806 131.392 217.66 129.152C217.762 129.121 217.865 129.096 217.97 129.076C218.228 129.016 218.487 128.955 218.736 128.884C219.933 128.559 221.08 128.069 222.143 127.429C224.618 125.924 225.434 123.928 226.712 121.678C226.897 121.357 226.974 120.986 226.933 120.619C226.892 120.252 226.735 119.907 226.484 119.635Z" fill="#2F2E41"/>
<path d="M275.861 233.84C275.856 234.727 275.846 235.968 275.805 237.504C275.8 237.717 275.795 237.935 275.79 238.158C275.724 240.98 275.658 243.347 275.552 245.977C275.547 246.159 275.541 246.337 275.531 246.519C275.389 250.188 275.166 254.46 274.781 261.225C274.066 273.722 272.818 262.943 271.566 267.327C271.505 267.545 271.439 267.803 271.378 268.107C271.188 269.211 270.868 270.287 270.425 271.315C269.76 271.71 269.076 272.09 268.401 272.471C266.479 273.54 264.527 274.569 262.56 275.547C261.454 276.094 260.344 276.631 259.228 277.148C259.05 277.229 258.878 277.31 258.706 277.386C252.993 280.027 247.105 282.272 241.084 284.106C239.907 284.461 238.736 284.805 237.549 285.124C236.312 285.469 235.075 285.793 233.822 286.097C224.504 288.383 214.969 289.673 205.379 289.944C204.085 289.984 202.782 290 201.474 290C200.825 290 200.186 289.994 199.537 289.989C199.339 289.989 199.141 289.984 198.943 289.979C198.37 289.964 197.777 289.954 197.179 289.939C185.606 289.578 174.128 287.734 163.025 284.45L162.554 284.314C161.823 284.091 161.098 283.873 160.373 283.64C157.026 282.58 153.728 281.395 150.479 280.082C148 279.084 145.549 278.013 143.126 276.869C143.104 276.863 143.084 276.853 143.065 276.839C142.558 276.606 142.046 276.363 141.539 276.114C141.473 276.079 141.402 276.043 141.331 276.008C139.44 275.085 137.568 274.119 135.718 273.109C134.161 269.536 131.97 268.852 130.611 265.71C130.215 264.777 129.93 263.801 129.759 262.801C129.759 262.791 129.754 262.781 129.754 262.766C129.896 264.651 129.151 259.421 129.749 262.746C129.744 262.685 129.739 262.619 129.734 262.543C129.718 262.361 129.698 262.138 129.668 261.859C127.928 244.887 128.04 225.478 127.284 209.485C127.234 208.451 127.181 207.461 127.127 206.515C127.112 206.201 127.092 205.892 127.071 205.588C127.107 205.497 127.147 205.4 127.193 205.309C127.203 205.283 127.215 205.257 127.229 205.233C127.244 205.202 127.261 205.171 127.279 205.142C127.289 205.127 127.305 205.106 127.315 205.091C127.322 205.074 127.331 205.057 127.34 205.04C127.386 204.969 127.437 204.893 127.492 204.823C127.518 204.792 127.538 204.767 127.563 204.741C127.581 204.716 127.601 204.692 127.624 204.671C127.64 204.646 127.658 204.624 127.68 204.605C127.7 204.584 127.72 204.559 127.746 204.534C127.757 204.518 127.77 204.504 127.786 204.493C127.827 204.447 127.871 204.405 127.918 204.366C128.099 204.2 128.292 204.048 128.496 203.91C128.567 203.865 128.643 203.819 128.714 203.768C129.225 203.463 129.764 203.205 130.322 202.998C130.515 202.927 130.707 202.861 130.915 202.79C130.991 202.77 131.062 202.745 131.138 202.719C131.25 202.684 131.362 202.649 131.478 202.623C132.056 202.451 132.68 202.304 133.354 202.167C133.436 202.152 133.522 202.137 133.608 202.116C133.73 202.091 133.856 202.071 133.983 202.051C134.156 202.02 134.333 201.99 134.511 201.959C136.017 201.721 137.726 201.544 139.612 201.427C139.79 201.417 139.967 201.407 140.145 201.397C140.352 201.387 140.56 201.377 140.773 201.366C140.951 201.356 141.133 201.351 141.316 201.346C141.493 201.336 141.676 201.331 141.864 201.326C142.376 201.311 142.903 201.295 143.441 201.285C144.972 201.255 146.585 201.265 148.279 201.301C149.065 201.321 149.866 201.341 150.687 201.377C150.743 201.377 150.794 201.382 150.844 201.382C151.559 201.407 152.28 201.437 153.02 201.478C153.537 201.503 154.06 201.529 154.582 201.559C155.074 201.589 155.571 201.62 156.073 201.655C156.463 201.676 156.854 201.706 157.249 201.731C157.584 201.757 157.919 201.782 158.253 201.802L158.71 201.833C158.958 201.853 159.207 201.868 159.46 201.893C160.018 201.939 160.576 201.985 161.144 202.03C161.707 202.081 162.28 202.132 162.853 202.182C163.426 202.233 164.004 202.289 164.582 202.344C164.643 202.35 164.699 202.355 164.754 202.36C165.282 202.415 165.809 202.466 166.342 202.522C166.463 202.532 166.59 202.542 166.712 202.557C167.219 202.608 167.737 202.668 168.249 202.722C168.407 202.739 168.563 202.756 168.721 202.773C169.122 202.817 169.518 202.854 169.922 202.902C170.454 202.963 170.997 203.018 171.524 203.089C171.935 203.135 172.346 203.181 172.756 203.231C173.4 203.307 174.055 203.388 174.709 203.475C174.957 203.505 175.206 203.535 175.454 203.571C177.32 203.804 179.207 204.062 181.124 204.331C184.029 204.741 186.981 205.187 189.952 205.669C192.929 206.15 195.923 206.659 198.933 207.194C199.694 207.331 200.454 207.468 201.22 207.61C201.565 207.676 201.91 207.741 202.255 207.807C202.843 207.914 203.431 208.025 204.019 208.137C204.608 208.248 205.196 208.36 205.784 208.476C206.484 208.613 207.189 208.75 207.889 208.887C212.498 209.799 217.082 210.772 221.555 211.791C222.29 211.958 223.026 212.13 223.756 212.297C225.216 212.637 226.663 212.981 228.097 213.331C228.492 213.422 228.883 213.519 229.273 213.615C230.247 213.858 231.22 214.101 232.179 214.35L232.346 214.395C233.051 214.568 233.741 214.745 234.43 214.927C236.058 215.353 237.659 215.784 239.233 216.22C240.277 216.509 241.31 216.801 242.331 217.096C243.858 217.537 245.353 217.983 246.809 218.434C247.169 218.546 247.529 218.657 247.884 218.764C248.949 219.093 249.999 219.427 251.018 219.762C251.829 220.025 252.62 220.294 253.401 220.563C254.182 220.831 254.948 221.1 255.698 221.368C256.18 221.541 256.657 221.723 257.134 221.895C257.818 222.149 258.493 222.402 259.152 222.656C259.355 222.732 259.552 222.813 259.75 222.889C259.877 222.944 259.999 222.99 260.12 223.041C260.359 223.137 260.602 223.228 260.835 223.324C261.074 223.416 261.307 223.512 261.54 223.613C261.768 223.705 262.002 223.801 262.225 223.897C262.453 223.988 262.676 224.085 262.899 224.186C263.087 224.262 263.269 224.343 263.447 224.424C263.807 224.581 264.167 224.738 264.517 224.901C264.689 224.982 264.862 225.058 265.034 225.139L265.43 225.321C265.486 225.352 265.541 225.377 265.597 225.402C265.724 225.463 265.856 225.529 265.982 225.59C266.277 225.727 266.566 225.874 266.85 226.01C267.23 226.203 267.6 226.396 267.955 226.583C268.315 226.776 268.665 226.968 269 227.156C269.056 227.186 269.106 227.216 269.162 227.247C269.238 227.287 269.314 227.333 269.39 227.374C269.649 227.521 269.897 227.673 270.146 227.819C270.633 228.118 271.094 228.412 271.525 228.706C271.621 228.772 271.713 228.838 271.809 228.899C272.129 229.127 272.433 229.35 272.717 229.578C272.717 229.583 272.717 229.583 272.722 229.583C272.818 229.654 272.91 229.73 273.001 229.801C273.077 229.872 273.158 229.933 273.234 230.004C273.498 230.232 273.741 230.45 273.964 230.673C274.039 230.741 274.11 230.814 274.177 230.89C274.207 230.915 274.234 230.942 274.258 230.972C274.36 231.073 274.451 231.174 274.537 231.276C274.551 231.29 274.563 231.305 274.573 231.321C274.695 231.463 274.806 231.605 274.913 231.747C274.963 231.818 275.019 231.889 275.065 231.96C275.126 232.046 275.186 232.137 275.237 232.223C275.283 232.294 275.323 232.37 275.364 232.441C275.472 232.624 275.563 232.815 275.638 233.014C275.695 233.148 275.741 233.287 275.775 233.429C275.813 233.564 275.842 233.701 275.861 233.84Z" fill="#2F2E41"/>
<path opacity="0.2" d="M275.861 233.84C275.856 234.727 275.846 235.968 275.805 237.504C275.8 237.717 275.79 237.935 275.785 238.158C275.734 240.311 275.658 242.972 275.552 245.977C275.547 246.159 275.541 246.337 275.531 246.519C275.389 250.188 275.166 254.46 274.781 261.225C274.066 273.722 272.818 262.943 271.566 267.327C268.087 265.188 264.274 262.948 260.196 260.648C259.461 260.232 258.719 259.815 257.97 259.396C249.816 254.85 240.708 250.087 231.2 245.369C230.825 245.181 230.445 244.994 230.069 244.811C208.289 234.053 184.516 223.588 165.256 216.605C161.539 215.257 157.99 214.041 154.653 212.971C147.624 210.726 141.549 209.155 136.874 208.476C132.005 207.767 128.643 208.02 127.284 209.485C127.234 208.451 127.181 207.461 127.127 206.515C127.107 206.201 127.087 205.892 127.066 205.588C127.098 205.504 127.138 205.425 127.178 205.344C127.183 205.333 127.187 205.321 127.193 205.309C127.203 205.283 127.215 205.257 127.229 205.233C127.244 205.202 127.26 205.171 127.279 205.142C127.296 205.106 127.316 205.072 127.34 205.04C127.386 204.969 127.436 204.893 127.492 204.823C127.533 204.769 127.577 204.719 127.624 204.67C127.64 204.646 127.658 204.624 127.68 204.605C127.7 204.584 127.72 204.559 127.746 204.534C127.757 204.518 127.77 204.504 127.786 204.493C127.826 204.447 127.871 204.405 127.918 204.366C128.099 204.2 128.292 204.048 128.496 203.91C128.567 203.865 128.643 203.819 128.714 203.768C129.225 203.463 129.764 203.205 130.322 202.998C130.515 202.927 130.707 202.861 130.915 202.79C130.991 202.77 131.062 202.745 131.138 202.719C131.25 202.684 131.361 202.649 131.478 202.623C132.056 202.451 132.68 202.304 133.354 202.167C133.557 202.127 133.77 202.086 133.983 202.051C134.156 202.02 134.333 201.99 134.511 201.959C136.017 201.721 137.726 201.544 139.612 201.427C139.79 201.417 139.967 201.407 140.145 201.397C140.352 201.387 140.56 201.377 140.773 201.366C140.951 201.356 141.133 201.351 141.316 201.346C141.493 201.336 141.676 201.331 141.864 201.326C142.376 201.311 142.903 201.295 143.441 201.285C144.972 201.26 146.585 201.27 148.278 201.306C149.064 201.321 149.866 201.346 150.687 201.382C150.738 201.382 150.794 201.387 150.844 201.387C151.559 201.407 152.285 201.442 153.02 201.478C153.537 201.503 154.059 201.529 154.582 201.559C155.074 201.589 155.571 201.62 156.073 201.655C156.463 201.676 156.854 201.706 157.249 201.731C157.584 201.757 157.919 201.782 158.253 201.802C158.654 201.833 159.054 201.863 159.46 201.893C160.018 201.939 160.576 201.985 161.144 202.03C161.707 202.081 162.28 202.132 162.853 202.182C163.426 202.233 164.004 202.289 164.582 202.344C164.643 202.35 164.699 202.355 164.754 202.36C165.282 202.415 165.809 202.466 166.342 202.522C169.293 202.821 172.33 203.17 175.454 203.571C177.32 203.809 179.21 204.064 181.124 204.336C184.029 204.747 186.981 205.192 189.952 205.669C192.929 206.15 195.923 206.659 198.933 207.194C199.694 207.331 200.454 207.468 201.22 207.61C202.153 207.782 203.086 207.958 204.019 208.137C204.608 208.248 205.196 208.36 205.784 208.476C206.484 208.613 207.189 208.75 207.889 208.887C212.498 209.799 217.082 210.772 221.555 211.791C222.29 211.958 223.026 212.13 223.756 212.297C225.216 212.637 226.663 212.981 228.097 213.331C228.492 213.427 228.883 213.524 229.273 213.62C230.252 213.863 231.22 214.106 232.179 214.35V214.355C232.235 214.365 232.29 214.38 232.346 214.395C233.046 214.573 233.741 214.75 234.43 214.932C236.058 215.358 237.659 215.787 239.233 216.22C240.277 216.514 241.312 216.802 242.331 217.096C243.858 217.542 245.353 217.988 246.809 218.434C247.169 218.546 247.529 218.657 247.884 218.764C248.949 219.098 249.993 219.431 251.018 219.762C251.829 220.025 252.62 220.294 253.401 220.563C254.182 220.831 254.948 221.1 255.698 221.368C256.185 221.541 256.662 221.718 257.134 221.89C257.823 222.144 258.493 222.397 259.152 222.656C259.355 222.732 259.552 222.813 259.75 222.889C260.12 223.031 260.48 223.178 260.835 223.325C261.074 223.416 261.307 223.512 261.54 223.613C261.768 223.705 262.002 223.801 262.225 223.897C262.453 223.988 262.676 224.085 262.899 224.186C263.087 224.262 263.269 224.343 263.447 224.424C263.807 224.581 264.167 224.738 264.517 224.901C264.689 224.982 264.862 225.058 265.034 225.139L265.43 225.321C265.486 225.352 265.541 225.377 265.597 225.402C266.028 225.605 266.444 225.808 266.85 226.01C267.23 226.203 267.6 226.395 267.955 226.583C268.376 226.806 268.777 227.024 269.162 227.247C269.238 227.287 269.314 227.333 269.39 227.374C269.649 227.521 269.897 227.673 270.146 227.819C270.633 228.118 271.094 228.412 271.525 228.706C271.951 229 272.347 229.289 272.717 229.578C272.717 229.583 272.717 229.583 272.722 229.583C272.899 229.725 273.072 229.867 273.234 230.004C273.498 230.232 273.741 230.45 273.964 230.673C274.039 230.741 274.11 230.814 274.177 230.89C274.207 230.915 274.234 230.942 274.258 230.972C274.365 231.088 274.471 231.205 274.573 231.321C274.695 231.463 274.806 231.605 274.913 231.747C274.963 231.818 275.019 231.889 275.065 231.96C275.126 232.046 275.186 232.137 275.237 232.223C275.283 232.294 275.323 232.37 275.364 232.441C275.472 232.624 275.563 232.815 275.638 233.014C275.693 233.149 275.739 233.288 275.775 233.429C275.813 233.564 275.842 233.701 275.861 233.84Z" fill="black"/>
</g>
<defs>
<clipPath id="clip0_6_371">
<rect width="399" height="290" fill="white"/>
</clipPath>
</defs>
</svg>
